<?xml version="1.0" encoding="utf-8"?>
<!-- Generator: Adobe Illustrator 22.0.0, SVG Export Plug-In . SVG Version: 6.00 Build 0)  -->
<svg version="1.1" xmlns="http://www.w3.org/2000/svg" xmlns:xlink="http://www.w3.org/1999/xlink" x="0px" y="0px" width="740px"
	 height="200px" viewBox="0 0 740 200" enable-background="new 0 0 740 200" xml:space="preserve">
<g id="Layer_1">
	<g>
		<path fill="#555555" d="M-374.5,144.2h0.8l-2.8,10h-0.8L-374.5,144.2z"/>
		<path fill="#555555" d="M-373,151.3V147h0.9v4.2c0,0.8,0.3,1.1,1.2,1.1c0.6,0,1.2-0.2,1.7-0.5V147h0.9v5.9h-0.8l-0.1-0.5h0
			c-0.5,0.4-1.2,0.6-1.9,0.6C-372.3,153.1-373,152.5-373,151.3z"/>
		<path fill="#555555" d="M-367,152.6v-0.7c0.5,0.2,0.9,0.4,1.8,0.4c0.9,0,1.3-0.3,1.3-0.9c0-0.6-0.3-0.8-1-1l-0.6-0.2
			c-0.9-0.2-1.5-0.6-1.5-1.6c0-1,0.7-1.7,2-1.7c0.8,0,1.3,0.2,1.6,0.3v0.7c-0.3-0.2-0.9-0.3-1.6-0.3c-0.8,0-1.2,0.3-1.2,0.8
			c0,0.5,0.3,0.7,0.9,0.9l0.6,0.2c1.1,0.3,1.6,0.7,1.6,1.7c0,1.1-0.8,1.8-2.1,1.8C-365.9,153-366.5,152.9-367,152.6z"/>
		<path fill="#555555" d="M-362,150.1v-0.2c0-2.1,1.2-3,2.6-3c1.6,0,2.4,0.9,2.4,2.8v0.5h-4.1c0,1.5,0.8,2.1,2,2.1
			c0.8,0,1.3-0.2,1.9-0.4v0.7c-0.4,0.3-1,0.6-2,0.6C-361,153.1-362,151.9-362,150.1z M-361.1,149.5h3.1c0-1.3-0.5-1.8-1.5-1.8
			C-360.2,147.6-361,148.1-361.1,149.5z"/>
		<path fill="#555555" d="M-355.6,147h0.9v0.7h0.1c0.3-0.4,1-0.7,1.7-0.7c0.1,0,0.3,0,0.4,0v0.8c-0.2,0-0.3,0-0.4,0
			c-0.6,0-1.2,0.2-1.6,0.5v4.7h-0.9V147z"/>
		<path fill="#555555" d="M-351.9,152.6v-0.7c0.5,0.2,0.9,0.4,1.8,0.4c0.9,0,1.3-0.3,1.3-0.9c0-0.6-0.3-0.8-1-1l-0.6-0.2
			c-0.9-0.2-1.5-0.6-1.5-1.6c0-1,0.7-1.7,2-1.7c0.8,0,1.3,0.2,1.6,0.3v0.7c-0.3-0.2-0.9-0.3-1.6-0.3c-0.8,0-1.2,0.3-1.2,0.8
			c0,0.5,0.3,0.7,0.9,0.9l0.6,0.2c1.1,0.3,1.6,0.7,1.6,1.7c0,1.1-0.8,1.8-2.1,1.8C-350.7,153-351.4,152.9-351.9,152.6z"/>
		<path fill="#555555" d="M-344.4,144.2h0.8l-2.8,10h-0.8L-344.4,144.2z"/>
		<path fill="#555555" d="M-343.7,153.3c0-0.6,0.5-1,1.1-1.2v-0.1c-0.3-0.1-0.6-0.3-0.6-0.7c0-0.4,0.2-0.6,0.7-1
			c-0.5-0.3-0.7-0.8-0.7-1.5v0c0-1.2,0.9-1.9,2.2-1.9c0.3,0,0.6,0,0.8,0.1h2v0.7h-1.1c0.3,0.3,0.4,0.6,0.4,1.1v0
			c0,1.3-1,1.9-2.2,1.9c-0.4,0-0.7-0.1-1-0.2c-0.2,0.1-0.3,0.3-0.3,0.5c0,0.3,0.2,0.4,0.6,0.4h1.6c1.1,0,1.9,0.3,1.9,1.4
			c0,1-0.8,1.8-2.8,1.8C-342.9,154.7-343.7,154.2-343.7,153.3z M-339.2,153c0-0.6-0.3-0.7-1.1-0.7h-1.7c-0.5,0.2-0.8,0.4-0.8,0.9
			c0,0.5,0.5,0.8,1.7,0.8C-339.7,154-339.2,153.6-339.2,153z M-339.8,148.8L-339.8,148.8c0-0.9-0.5-1.2-1.3-1.2
			c-0.8,0-1.3,0.4-1.3,1.2v0.1c0,0.8,0.5,1.2,1.3,1.2C-340.2,150-339.8,149.6-339.8,148.8z"/>
		<path fill="#555555" d="M-337.5,150.1v-0.2c0-2.1,1.2-3,2.6-3c1.6,0,2.4,0.9,2.4,2.8v0.5h-4.1c0,1.5,0.8,2.1,2,2.1
			c0.8,0,1.3-0.2,1.9-0.4v0.7c-0.4,0.3-1,0.6-2,0.6C-336.5,153.1-337.5,151.9-337.5,150.1z M-336.5,149.5h3.1c0-1.3-0.5-1.8-1.5-1.8
			C-335.6,147.6-336.4,148.1-336.5,149.5z"/>
		<path fill="#555555" d="M-330.7,151.6v-3.8h-0.9V147h0.9v-1.4h0.9v1.4h1.5v0.8h-1.5v3.7c0,0.6,0.2,0.8,0.9,0.8
			c0.3,0,0.5,0,0.8-0.1v0.6c-0.2,0.1-0.5,0.2-1,0.2C-330.1,153-330.7,152.6-330.7,151.6z"/>
		<path fill="#555555" d="M-324.9,145.7h-2.5v-0.8h5.9v0.8h-2.5v7.2h-0.9V145.7z"/>
		<path fill="#555555" d="M-320.7,150.1v-0.2c0-1.9,1.1-3,2.7-3c1.7,0,2.7,1.1,2.7,3v0.2c0,1.9-1.1,3-2.7,3
			C-319.7,153.1-320.7,152-320.7,150.1z M-316.2,150.1v-0.3c0-1.7-0.8-2.2-1.8-2.2c-1.1,0-1.8,0.8-1.8,2.2v0.3
			c0,1.7,0.8,2.2,1.8,2.2C-316.9,152.3-316.2,151.5-316.2,150.1z"/>
		<path fill="#555555" d="M-313.9,144.4h0.9v8.6h-0.9V144.4z M-312.9,149.9l2.4-2.9h1l-2.3,2.8l2.5,3.1h-1.1L-312.9,149.9z"/>
		<path fill="#555555" d="M-308.5,150.1v-0.2c0-2.1,1.2-3,2.6-3c1.6,0,2.4,0.9,2.4,2.8v0.5h-4.1c0,1.5,0.8,2.1,2,2.1
			c0.8,0,1.3-0.2,1.9-0.4v0.7c-0.4,0.3-1,0.6-2,0.6C-307.6,153.1-308.5,151.9-308.5,150.1z M-307.6,149.5h3.1c0-1.3-0.5-1.8-1.5-1.8
			C-306.7,147.6-307.5,148.1-307.6,149.5z"/>
		<path fill="#555555" d="M-302.2,147h0.9v0.5h0c0.6-0.4,1.3-0.6,2.1-0.6c1.2,0,1.7,0.5,1.7,1.6v4.4h-0.9v-4.2c0-0.7-0.3-1-1.2-1
			c-0.6,0-1.2,0.2-1.7,0.4v4.8h-0.9V147z"/>
		<path fill="#555555" d="M-291,150.9v1.4h4.3v0.8h-9.5v-0.8h4.3v-1.4c-1.8-0.1-2.9-0.7-2.9-1.8c0-1.2,1.3-1.8,3.4-1.8
			c2.1,0,3.4,0.6,3.4,1.8C-288,150.2-289.2,150.8-291,150.9z M-295.7,146.8V146h8.6v0.8H-295.7z M-291.4,148.1
			c-1.2,0-2.4,0.3-2.4,1.1c0,0.7,1.2,1.1,2.4,1.1c1.2,0,2.4-0.3,2.4-1.1C-289,148.4-290.2,148.1-291.4,148.1z M-293.3,145.1v-0.8
			h3.8v0.8H-293.3z"/>
		<path fill="#555555" d="M-284.6,154.1v-2.3h6.2V151h-6.2v-0.7h3.1v-0.9h-4.3v-0.7h9.5v0.7h-4.3v0.9h3.1v2.2h-6.2v0.9h6.6v0.7
			H-284.6z M-277.2,148.2c-1.5-0.2-3.2-0.7-3.8-1.6c-0.6,0.9-2.2,1.5-3.8,1.6l-0.4-0.7c1.6-0.1,3.3-0.6,3.6-1.5h-3.1v-0.7h7.4v0.7
			h-3.1c0.4,0.8,2.2,1.3,3.7,1.4L-277.2,148.2z M-282.7,144.6v-0.7h3.4v0.7H-282.7z"/>
		<path fill="#555555" d="M-382.5,165h0.9v0.5h0c0.6-0.4,1.3-0.6,2.1-0.6c1.2,0,1.7,0.5,1.7,1.6v4.4h-0.9v-4.2c0-0.7-0.3-1-1.2-1
			c-0.6,0-1.2,0.2-1.7,0.4v4.8h-0.9V165z"/>
		<path fill="#555555" d="M-376.4,168.1v-0.2c0-2.1,1.2-3,2.6-3c1.6,0,2.4,0.9,2.4,2.8v0.5h-4.1c0,1.5,0.8,2.1,2,2.1
			c0.8,0,1.3-0.2,1.9-0.4v0.7c-0.4,0.3-1,0.6-2,0.6C-375.5,171.1-376.4,169.9-376.4,168.1z M-375.5,167.5h3.1c0-1.3-0.5-1.8-1.5-1.8
			C-374.6,165.6-375.4,166.1-375.5,167.5z"/>
		<path fill="#555555" d="M-370.6,165h1l1.2,4.8h0l1.4-4.8h0.8l1.4,4.8h0l1.2-4.8h0.9l-1.7,5.9h-0.9l-1.4-4.5h0l-1.4,4.5h-0.9
			L-370.6,165z"/>
		<path fill="#555555" d="M-358.6,169.4c0-1,0.7-1.6,1.8-1.7l1.6-0.2v-0.6c0-0.9-0.4-1.2-1.5-1.2c-0.6,0-1,0.1-1.4,0.2v-0.7
			c0.5-0.2,1.1-0.3,1.8-0.3c1.3,0,2,0.5,2,1.8v4.3h-0.7l-0.1-0.5h-0.1c-0.3,0.3-0.8,0.6-1.6,0.6
			C-357.8,171.1-358.6,170.5-358.6,169.4z M-355.2,169.9v-1.8l-1.4,0.2c-0.7,0.1-1.1,0.4-1.1,1.1c0,0.6,0.4,1,1.1,1
			C-356,170.3-355.4,170.2-355.2,169.9z"/>
		<path fill="#555555" d="M-352.9,168.1v-0.2c0-2.1,1.2-3,2.8-3c0.8,0,1.2,0.1,1.6,0.4v0.8c-0.5-0.2-0.9-0.4-1.7-0.4
			c-1.1,0-1.8,0.7-1.8,2.1v0.3c0,1.5,0.6,2.2,1.9,2.2c0.8,0,1.3-0.3,1.6-0.4v0.7c-0.4,0.2-0.9,0.5-1.7,0.5
			C-351.9,171.1-352.9,170.1-352.9,168.1z"/>
		<path fill="#555555" d="M-347.5,168.1v-0.2c0-2.1,1.2-3,2.8-3c0.8,0,1.2,0.1,1.6,0.4v0.8c-0.5-0.2-0.9-0.4-1.7-0.4
			c-1.1,0-1.8,0.7-1.8,2.1v0.3c0,1.5,0.6,2.2,1.9,2.2c0.8,0,1.3-0.3,1.6-0.4v0.7c-0.4,0.2-0.9,0.5-1.7,0.5
			C-346.5,171.1-347.5,170.1-347.5,168.1z"/>
		<path fill="#555555" d="M-342.1,168.1v-0.2c0-2.1,1.2-3,2.6-3c1.6,0,2.4,0.9,2.4,2.8v0.5h-4.1c0,1.5,0.8,2.1,2,2.1
			c0.8,0,1.3-0.2,1.9-0.4v0.7c-0.4,0.3-1,0.6-2,0.6C-341.1,171.1-342.1,169.9-342.1,168.1z M-341.2,167.5h3.1c0-1.3-0.5-1.8-1.5-1.8
			C-340.3,165.6-341.1,166.1-341.2,167.5z"/>
		<path fill="#555555" d="M-336.1,170.6v-0.7c0.5,0.2,0.9,0.4,1.8,0.4c0.9,0,1.3-0.3,1.3-0.9c0-0.6-0.3-0.8-1-1l-0.6-0.2
			c-0.9-0.2-1.5-0.6-1.5-1.6c0-1,0.7-1.7,2-1.7c0.8,0,1.3,0.2,1.6,0.3v0.7c-0.3-0.2-0.9-0.3-1.6-0.3c-0.8,0-1.2,0.3-1.2,0.8
			c0,0.5,0.3,0.7,0.9,0.9l0.6,0.2c1.1,0.3,1.6,0.7,1.6,1.7c0,1.1-0.8,1.8-2.1,1.8C-335,171-335.6,170.9-336.1,170.6z"/>
		<path fill="#555555" d="M-331.2,170.6v-0.7c0.5,0.2,0.9,0.4,1.8,0.4c0.9,0,1.3-0.3,1.3-0.9c0-0.6-0.3-0.8-1-1l-0.6-0.2
			c-0.9-0.2-1.5-0.6-1.5-1.6c0-1,0.7-1.7,2-1.7c0.8,0,1.3,0.2,1.6,0.3v0.7c-0.3-0.2-0.9-0.3-1.6-0.3c-0.8,0-1.2,0.3-1.2,0.8
			c0,0.5,0.3,0.7,0.9,0.9l0.6,0.2c1.1,0.3,1.6,0.7,1.6,1.7c0,1.1-0.8,1.8-2.1,1.8C-330,171-330.7,170.9-331.2,170.6z"/>
		<path fill="#555555" d="M-326.5,171.5h3.8v0.6h-3.8V171.5z"/>
		<path fill="#555555" d="M-321.4,169.6v-3.8h-0.9V165h0.9v-1.4h0.9v1.4h1.5v0.8h-1.5v3.7c0,0.6,0.2,0.8,0.9,0.8
			c0.3,0,0.5,0,0.8-0.1v0.6c-0.2,0.1-0.5,0.2-1,0.2C-320.8,171-321.4,170.6-321.4,169.6z"/>
		<path fill="#555555" d="M-317.9,168.1v-0.2c0-1.9,1.1-3,2.7-3c1.7,0,2.7,1.1,2.7,3v0.2c0,1.9-1.1,3-2.7,3
			C-316.9,171.1-317.9,170-317.9,168.1z M-313.4,168.1v-0.3c0-1.7-0.8-2.2-1.8-2.2c-1.1,0-1.8,0.8-1.8,2.2v0.3
			c0,1.7,0.8,2.2,1.8,2.2C-314.1,170.3-313.4,169.5-313.4,168.1z"/>
		<path fill="#555555" d="M-311.1,162.4h0.9v8.6h-0.9V162.4z M-310.1,167.9l2.4-2.9h1l-2.3,2.8l2.5,3.1h-1.1L-310.1,167.9z"/>
		<path fill="#555555" d="M-305.8,168.1v-0.2c0-2.1,1.2-3,2.6-3c1.6,0,2.4,0.9,2.4,2.8v0.5h-4.1c0,1.5,0.8,2.1,2,2.1
			c0.8,0,1.3-0.2,1.9-0.4v0.7c-0.4,0.3-1,0.6-2,0.6C-304.8,171.1-305.8,169.9-305.8,168.1z M-304.8,167.5h3.1c0-1.3-0.5-1.8-1.5-1.8
			C-303.9,165.6-304.7,166.1-304.8,167.5z"/>
		<path fill="#555555" d="M-299.4,165h0.9v0.5h0c0.6-0.4,1.3-0.6,2.1-0.6c1.2,0,1.7,0.5,1.7,1.6v4.4h-0.9v-4.2c0-0.7-0.3-1-1.2-1
			c-0.6,0-1.2,0.2-1.7,0.4v4.8h-0.9V165z"/>
		<path fill="#555555" d="M-289.8,166.9v-4.7h0.9v1.5h3.1v-1.5h0.9v4.7H-289.8z M-285.9,164.5h-3.1v1.6h3.1V164.5z M-288.9,172.2
			v-2.6h5.8v-1h-5.8v-0.7h6.7v2.5h-5.8v1.2h6.2v0.8H-288.9z M-282.2,164.9v2.3h-0.9v-5.4h0.9v2.4h1.6v0.8H-282.2z"/>
		<path fill="#555555" d="M-279.9,164.5v-0.7h5.3v0.7H-279.9z M-277.1,168.3c-1.3,0-2.3-0.6-2.3-1.6c0-1,1-1.6,2.3-1.6
			s2.3,0.6,2.3,1.6C-274.9,167.7-275.9,168.3-277.1,168.3z M-278.6,163v-0.8h2.7v0.8H-278.6z M-277.1,165.7c-0.8,0-1.4,0.4-1.4,0.9
			c0,0.5,0.6,0.9,1.4,0.9c0.8,0,1.4-0.4,1.4-0.9C-275.8,166.1-276.4,165.7-277.1,165.7z M-274.5,172.3c-2.2,0-3.5-0.7-3.5-1.8
			c0-1.1,1.3-1.8,3.5-1.8c2.2,0,3.5,0.7,3.5,1.8C-271,171.6-272.3,172.3-274.5,172.3z M-277.1,170.5c0,0.6,1,1,2.6,1s2.6-0.4,2.6-1
			c0-0.6-1-1-2.6-1S-277.1,169.9-277.1,170.5z M-271.9,168.7v-3.1h-1.3v2.7h-0.9V162h0.9v2.8h1.3v-3h0.9v6.9H-271.9z"/>
	</g>
	<g>
		<path fill="#555555" d="M-700.5,144.2h0.8l-2.8,10h-0.8L-700.5,144.2z"/>
		<path fill="#555555" d="M-699,151.3V147h0.9v4.2c0,0.8,0.3,1.1,1.2,1.1c0.6,0,1.2-0.2,1.7-0.5V147h0.9v5.9h-0.8l-0.1-0.5h0
			c-0.5,0.4-1.2,0.6-1.9,0.6C-698.3,153.1-699,152.5-699,151.3z"/>
		<path fill="#555555" d="M-693,152.6v-0.7c0.5,0.2,0.9,0.4,1.8,0.4c0.9,0,1.3-0.3,1.3-0.9c0-0.6-0.3-0.8-1-1l-0.6-0.2
			c-0.9-0.2-1.5-0.6-1.5-1.6c0-1,0.7-1.7,2-1.7c0.8,0,1.3,0.2,1.6,0.3v0.7c-0.3-0.2-0.9-0.3-1.6-0.3c-0.8,0-1.2,0.3-1.2,0.8
			c0,0.5,0.3,0.7,0.9,0.9l0.6,0.2c1.1,0.3,1.6,0.7,1.6,1.7c0,1.1-0.8,1.8-2.1,1.8C-691.9,153-692.5,152.9-693,152.6z"/>
		<path fill="#555555" d="M-688,150.1v-0.2c0-2.1,1.2-3,2.6-3c1.6,0,2.4,0.9,2.4,2.8v0.5h-4.1c0,1.5,0.8,2.1,2,2.1
			c0.8,0,1.3-0.2,1.9-0.4v0.7c-0.4,0.3-1,0.6-2,0.6C-687,153.1-688,151.9-688,150.1z M-687.1,149.5h3.1c0-1.3-0.5-1.8-1.5-1.8
			C-686.2,147.6-687,148.1-687.1,149.5z"/>
		<path fill="#555555" d="M-681.6,147h0.9v0.7h0.1c0.3-0.4,1-0.7,1.7-0.7c0.1,0,0.3,0,0.4,0v0.8c-0.2,0-0.3,0-0.4,0
			c-0.6,0-1.2,0.2-1.6,0.5v4.7h-0.9V147z"/>
		<path fill="#555555" d="M-677.9,152.6v-0.7c0.5,0.2,0.9,0.4,1.8,0.4c0.9,0,1.3-0.3,1.3-0.9c0-0.6-0.3-0.8-1-1l-0.6-0.2
			c-0.9-0.2-1.5-0.6-1.5-1.6c0-1,0.7-1.7,2-1.7c0.8,0,1.3,0.2,1.6,0.3v0.7c-0.3-0.2-0.9-0.3-1.6-0.3c-0.8,0-1.2,0.3-1.2,0.8
			c0,0.5,0.3,0.7,0.9,0.9l0.6,0.2c1.1,0.3,1.6,0.7,1.6,1.7c0,1.1-0.8,1.8-2.1,1.8C-676.7,153-677.4,152.9-677.9,152.6z"/>
		<path fill="#555555" d="M-670.4,144.2h0.8l-2.8,10h-0.8L-670.4,144.2z"/>
		<path fill="#555555" d="M-669.7,153.3c0-0.6,0.5-1,1.1-1.2v-0.1c-0.3-0.1-0.6-0.3-0.6-0.7c0-0.4,0.2-0.6,0.7-1
			c-0.5-0.3-0.7-0.8-0.7-1.5v0c0-1.2,0.9-1.9,2.2-1.9c0.3,0,0.6,0,0.8,0.1h2v0.7h-1.1c0.3,0.3,0.4,0.6,0.4,1.1v0
			c0,1.3-1,1.9-2.2,1.9c-0.4,0-0.7-0.1-1-0.2c-0.2,0.1-0.3,0.3-0.3,0.5c0,0.3,0.2,0.4,0.6,0.4h1.6c1.1,0,1.9,0.3,1.9,1.4
			c0,1-0.8,1.8-2.8,1.8C-668.9,154.7-669.7,154.2-669.7,153.3z M-665.2,153c0-0.6-0.3-0.7-1.1-0.7h-1.7c-0.5,0.2-0.8,0.4-0.8,0.9
			c0,0.5,0.5,0.8,1.7,0.8C-665.7,154-665.2,153.6-665.2,153z M-665.8,148.8L-665.8,148.8c0-0.9-0.5-1.2-1.3-1.2
			c-0.8,0-1.3,0.4-1.3,1.2v0.1c0,0.8,0.5,1.2,1.3,1.2C-666.2,150-665.8,149.6-665.8,148.8z"/>
		<path fill="#555555" d="M-663.5,150.1v-0.2c0-2.1,1.2-3,2.6-3c1.6,0,2.4,0.9,2.4,2.8v0.5h-4.1c0,1.5,0.8,2.1,2,2.1
			c0.8,0,1.3-0.2,1.9-0.4v0.7c-0.4,0.3-1,0.6-2,0.6C-662.5,153.1-663.5,151.9-663.5,150.1z M-662.5,149.5h3.1c0-1.3-0.5-1.8-1.5-1.8
			C-661.6,147.6-662.4,148.1-662.5,149.5z"/>
		<path fill="#555555" d="M-656.7,151.6v-3.8h-0.9V147h0.9v-1.4h0.9v1.4h1.5v0.8h-1.5v3.7c0,0.6,0.2,0.8,0.9,0.8
			c0.3,0,0.5,0,0.8-0.1v0.6c-0.2,0.1-0.5,0.2-1,0.2C-656.1,153-656.7,152.6-656.7,151.6z"/>
		<path fill="#555555" d="M-650.9,145.7h-2.5v-0.8h5.9v0.8h-2.5v7.2h-0.9V145.7z"/>
		<path fill="#555555" d="M-646.7,150.1v-0.2c0-1.9,1.1-3,2.7-3c1.7,0,2.7,1.1,2.7,3v0.2c0,1.9-1.1,3-2.7,3
			C-645.7,153.1-646.7,152-646.7,150.1z M-642.2,150.1v-0.3c0-1.7-0.8-2.2-1.8-2.2c-1.1,0-1.8,0.8-1.8,2.2v0.3
			c0,1.7,0.8,2.2,1.8,2.2C-642.9,152.3-642.2,151.5-642.2,150.1z"/>
		<path fill="#555555" d="M-639.9,144.4h0.9v8.6h-0.9V144.4z M-638.9,149.9l2.4-2.9h1l-2.3,2.8l2.5,3.1h-1.1L-638.9,149.9z"/>
		<path fill="#555555" d="M-634.5,150.1v-0.2c0-2.1,1.2-3,2.6-3c1.6,0,2.4,0.9,2.4,2.8v0.5h-4.1c0,1.5,0.8,2.1,2,2.1
			c0.8,0,1.3-0.2,1.9-0.4v0.7c-0.4,0.3-1,0.6-2,0.6C-633.6,153.1-634.5,151.9-634.5,150.1z M-633.6,149.5h3.1c0-1.3-0.5-1.8-1.5-1.8
			C-632.7,147.6-633.5,148.1-633.6,149.5z"/>
		<path fill="#555555" d="M-628.2,147h0.9v0.5h0c0.6-0.4,1.3-0.6,2.1-0.6c1.2,0,1.7,0.5,1.7,1.6v4.4h-0.9v-4.2c0-0.7-0.3-1-1.2-1
			c-0.6,0-1.2,0.2-1.7,0.4v4.8h-0.9V147z"/>
		<path fill="#555555" d="M-617,150.9v1.4h4.3v0.8h-9.5v-0.8h4.3v-1.4c-1.8-0.1-2.9-0.7-2.9-1.8c0-1.2,1.3-1.8,3.4-1.8
			c2.1,0,3.4,0.6,3.4,1.8C-614,150.2-615.2,150.8-617,150.9z M-621.7,146.8V146h8.6v0.8H-621.7z M-617.4,148.1
			c-1.2,0-2.4,0.3-2.4,1.1c0,0.7,1.2,1.1,2.4,1.1c1.2,0,2.4-0.3,2.4-1.1C-615,148.4-616.2,148.1-617.4,148.1z M-619.3,145.1v-0.8
			h3.8v0.8H-619.3z"/>
		<path fill="#555555" d="M-610.6,154.1v-2.3h6.2V151h-6.2v-0.7h3.1v-0.9h-4.3v-0.7h9.5v0.7h-4.3v0.9h3.1v2.2h-6.2v0.9h6.6v0.7
			H-610.6z M-603.2,148.2c-1.5-0.2-3.2-0.7-3.8-1.6c-0.6,0.9-2.2,1.5-3.8,1.6l-0.4-0.7c1.6-0.1,3.3-0.6,3.6-1.5h-3.1v-0.7h7.4v0.7
			h-3.1c0.4,0.8,2.2,1.3,3.7,1.4L-603.2,148.2z M-608.7,144.6v-0.7h3.4v0.7H-608.7z"/>
		<path fill="#555555" d="M-696.8,169.4c0-1,0.7-1.6,1.8-1.7l1.6-0.2v-0.6c0-0.9-0.4-1.2-1.5-1.2c-0.6,0-1,0.1-1.4,0.2v-0.7
			c0.5-0.2,1.1-0.3,1.8-0.3c1.3,0,2,0.5,2,1.8v4.3h-0.7l-0.1-0.5h-0.1c-0.3,0.3-0.8,0.6-1.6,0.6C-696,171.1-696.8,170.5-696.8,169.4
			z M-693.3,169.9v-1.8l-1.4,0.2c-0.7,0.1-1.1,0.4-1.1,1.1c0,0.6,0.4,1,1.1,1C-694.1,170.3-693.6,170.2-693.3,169.9z"/>
		<path fill="#555555" d="M-691.1,168.1v-0.2c0-2.1,1.2-3,2.8-3c0.8,0,1.2,0.1,1.6,0.4v0.8c-0.5-0.2-0.9-0.4-1.7-0.4
			c-1.1,0-1.8,0.7-1.8,2.1v0.3c0,1.5,0.6,2.2,1.9,2.2c0.8,0,1.3-0.3,1.6-0.4v0.7c-0.4,0.2-0.9,0.5-1.7,0.5
			C-690,171.1-691.1,170.1-691.1,168.1z"/>
		<path fill="#555555" d="M-685.7,168.1v-0.2c0-2.1,1.2-3,2.8-3c0.8,0,1.2,0.1,1.6,0.4v0.8c-0.5-0.2-0.9-0.4-1.7-0.4
			c-1.1,0-1.8,0.7-1.8,2.1v0.3c0,1.5,0.6,2.2,1.9,2.2c0.8,0,1.3-0.3,1.6-0.4v0.7c-0.4,0.2-0.9,0.5-1.7,0.5
			C-684.6,171.1-685.7,170.1-685.7,168.1z"/>
		<path fill="#555555" d="M-680.3,168.1v-0.2c0-2.1,1.2-3,2.6-3c1.6,0,2.4,0.9,2.4,2.8v0.5h-4.1c0,1.5,0.8,2.1,2,2.1
			c0.8,0,1.3-0.2,1.9-0.4v0.7c-0.4,0.3-1,0.6-2,0.6C-679.3,171.1-680.3,169.9-680.3,168.1z M-679.3,167.5h3.1c0-1.3-0.5-1.8-1.5-1.8
			C-678.4,165.6-679.2,166.1-679.3,167.5z"/>
		<path fill="#555555" d="M-674.3,170.6v-0.7c0.5,0.2,0.9,0.4,1.8,0.4c0.9,0,1.3-0.3,1.3-0.9c0-0.6-0.3-0.8-1-1l-0.6-0.2
			c-0.9-0.2-1.5-0.6-1.5-1.6c0-1,0.7-1.7,2-1.7c0.8,0,1.3,0.2,1.6,0.3v0.7c-0.3-0.2-0.9-0.3-1.6-0.3c-0.8,0-1.2,0.3-1.2,0.8
			c0,0.5,0.3,0.7,0.9,0.9l0.6,0.2c1.1,0.3,1.6,0.7,1.6,1.7c0,1.1-0.8,1.8-2.1,1.8C-673.2,171-673.8,170.9-674.3,170.6z"/>
		<path fill="#555555" d="M-669.3,170.6v-0.7c0.5,0.2,0.9,0.4,1.8,0.4c0.9,0,1.3-0.3,1.3-0.9c0-0.6-0.3-0.8-1-1l-0.6-0.2
			c-0.9-0.2-1.5-0.6-1.5-1.6c0-1,0.7-1.7,2-1.7c0.8,0,1.3,0.2,1.6,0.3v0.7c-0.3-0.2-0.9-0.3-1.6-0.3c-0.8,0-1.2,0.3-1.2,0.8
			c0,0.5,0.3,0.7,0.9,0.9l0.6,0.2c1.1,0.3,1.6,0.7,1.6,1.7c0,1.1-0.8,1.8-2.1,1.8C-668.2,171-668.8,170.9-669.3,170.6z"/>
		<path fill="#555555" d="M-664.7,171.5h3.8v0.6h-3.8V171.5z"/>
		<path fill="#555555" d="M-659.6,169.6v-3.8h-0.9V165h0.9v-1.4h0.9v1.4h1.5v0.8h-1.5v3.7c0,0.6,0.2,0.8,0.9,0.8
			c0.3,0,0.5,0,0.8-0.1v0.6c-0.2,0.1-0.5,0.2-1,0.2C-658.9,171-659.6,170.6-659.6,169.6z"/>
		<path fill="#555555" d="M-656.1,168.1v-0.2c0-1.9,1.1-3,2.7-3c1.7,0,2.7,1.1,2.7,3v0.2c0,1.9-1.1,3-2.7,3
			C-655.1,171.1-656.1,170-656.1,168.1z M-651.6,168.1v-0.3c0-1.7-0.8-2.2-1.8-2.2c-1.1,0-1.8,0.8-1.8,2.2v0.3
			c0,1.7,0.8,2.2,1.8,2.2C-652.3,170.3-651.6,169.5-651.6,168.1z"/>
		<path fill="#555555" d="M-649.3,162.4h0.9v8.6h-0.9V162.4z M-648.3,167.9l2.4-2.9h1l-2.3,2.8l2.5,3.1h-1.1L-648.3,167.9z"/>
		<path fill="#555555" d="M-643.9,168.1v-0.2c0-2.1,1.2-3,2.6-3c1.6,0,2.4,0.9,2.4,2.8v0.5h-4.1c0,1.5,0.8,2.1,2,2.1
			c0.8,0,1.3-0.2,1.9-0.4v0.7c-0.4,0.3-1,0.6-2,0.6C-643,171.1-643.9,169.9-643.9,168.1z M-643,167.5h3.1c0-1.3-0.5-1.8-1.5-1.8
			C-642.1,165.6-642.9,166.1-643,167.5z"/>
		<path fill="#555555" d="M-637.5,165h0.9v0.5h0c0.6-0.4,1.3-0.6,2.1-0.6c1.2,0,1.7,0.5,1.7,1.6v4.4h-0.9v-4.2c0-0.7-0.3-1-1.2-1
			c-0.6,0-1.2,0.2-1.7,0.4v4.8h-0.9V165z"/>
		<path fill="#555555" d="M-628,166.9v-4.7h0.9v1.5h3.1v-1.5h0.9v4.7H-628z M-624,164.5h-3.1v1.6h3.1V164.5z M-627,172.2v-2.6h5.8
			v-1h-5.8v-0.7h6.7v2.5h-5.8v1.2h6.2v0.8H-627z M-620.3,164.9v2.3h-0.9v-5.4h0.9v2.4h1.6v0.8H-620.3z"/>
		<path fill="#555555" d="M-618.1,164.5v-0.7h5.3v0.7H-618.1z M-615.3,168.3c-1.3,0-2.3-0.6-2.3-1.6c0-1,1-1.6,2.3-1.6
			s2.3,0.6,2.3,1.6C-613,167.7-614,168.3-615.3,168.3z M-616.7,163v-0.8h2.7v0.8H-616.7z M-615.3,165.7c-0.8,0-1.4,0.4-1.4,0.9
			c0,0.5,0.6,0.9,1.4,0.9c0.8,0,1.4-0.4,1.4-0.9C-613.9,166.1-614.5,165.7-615.3,165.7z M-612.7,172.3c-2.2,0-3.5-0.7-3.5-1.8
			c0-1.1,1.3-1.8,3.5-1.8c2.2,0,3.5,0.7,3.5,1.8C-609.2,171.6-610.5,172.3-612.7,172.3z M-615.3,170.5c0,0.6,1,1,2.6,1
			c1.6,0,2.6-0.4,2.6-1c0-0.6-1-1-2.6-1C-614.3,169.5-615.3,169.9-615.3,170.5z M-610.1,168.7v-3.1h-1.3v2.7h-0.9V162h0.9v2.8h1.3
			v-3h0.9v6.9H-610.1z"/>
	</g>
	
		<line fill="none" stroke="#555555" stroke-width="3" stroke-linecap="round" stroke-miterlimit="10" x1="-60.5" y1="81.6" x2="-719.5" y2="81.6"/>
	
		<rect x="-653.4" y="41.6" fill="#EAFAFF" stroke="#555555" stroke-width="3" stroke-linecap="round" stroke-linejoin="round" stroke-miterlimit="10" width="200" height="40"/>
	<g>
		<path fill="#555555" d="M-597.3,65.5v-3.7h-2.4V61h9.5v0.8h-2.5v3.7h-0.9v-3.7h-2.7v3.7H-597.3z M-595.1,60.1
			c-2.3,0-3.7-0.9-3.7-2.3c0-1.4,1.4-2.3,3.7-2.3c2.3,0,3.7,0.9,3.7,2.3C-591.3,59.1-592.7,60.1-595.1,60.1z M-597.9,57.8
			c0,0.9,1.1,1.5,2.8,1.5c1.8,0,2.8-0.6,2.8-1.5c0-0.9-1.1-1.5-2.8-1.5C-596.8,56.3-597.9,56.9-597.9,57.8z"/>
		<path fill="#555555" d="M-588.8,64.2v-0.8h2.5v-1.4h0.9v1.4h2.7v-1.4h0.9v1.4h2.5v0.8H-588.8z M-588.2,57.9v-0.8h8.3v0.8H-588.2z
			 M-584.1,61.9c-2,0-3.2-0.6-3.2-1.8c0-1.2,1.3-1.8,3.2-1.8c2,0,3.2,0.6,3.2,1.8C-580.8,61.3-582.1,61.9-584.1,61.9z M-584.1,59.1
			c-1.2,0-2.3,0.3-2.3,1.1c0,0.7,1.1,1.1,2.3,1.1c1.2,0,2.3-0.3,2.3-1.1C-581.8,59.4-582.9,59.1-584.1,59.1z M-586,56.3v-0.8h3.8
			v0.8H-586z"/>
		<path fill="#555555" d="M-577.9,57.7V57h6.1v0.8H-577.9z M-574.8,62c-1.4,0-2.5-0.7-2.5-1.8c0-1.1,1.1-1.8,2.5-1.8
			c1.4,0,2.5,0.7,2.5,1.8C-572.3,61.3-573.4,62-574.8,62z M-574.8,59c-0.8,0-1.6,0.4-1.6,1.1c0,0.7,0.8,1.1,1.6,1.1
			c0.9,0,1.6-0.4,1.6-1.1C-573.2,59.5-574,59-574.8,59z M-576.4,56.2v-0.8h3v0.8H-576.4z M-576.3,65.2v-2.7h0.9v1.9h6.1v0.8H-576.3z
			 M-569.8,59.3v3.4h-0.9V55h0.9v3.5h1.6v0.8H-569.8z"/>
		<path fill="#555555" d="M-555.2,60.4h1.6v0.8h-4.3v4.3h-0.9v-4.3h-4.3v-0.8h6.9c0.3-1.1,0.3-2.9,0.3-3.9h-6.2v-0.8h7.1
			C-554.9,57.2-554.9,58.8-555.2,60.4z"/>
		<path fill="#555555" d="M-547,55.9c-0.1,2.9-2.1,4.9-4.7,5.7l-0.5-0.8c2.3-0.6,3.9-2.2,4.2-4.2h-3.8v-0.8H-547z M-550.6,65.2V62
			h0.9v2.5h6v0.8H-550.6z M-544.1,59.1v3.8h-0.9V55h0.9v3.3h1.6v0.8H-544.1z"/>
		<path fill="#555555" d="M-540.9,60.5v-0.2c0-2.1,1-3.8,2.1-4.9h0.8c-1.1,1.2-1.9,2.9-1.9,4.8v0.3c0,1.8,0.9,3.7,1.9,4.9h-0.8
			C-539.9,64.3-540.9,62.6-540.9,60.5z"/>
		<path fill="#555555" d="M-536.6,63.7l0.2-0.8c0.5,0.3,1.3,0.5,1.9,0.5c1.3,0,2.1-0.6,2.1-1.6c0-1-0.8-1.5-2-1.5h-0.8v-0.8h0.7
			c1,0,1.8-0.5,1.8-1.4c0-1-0.6-1.3-1.6-1.3c-0.7,0-1.3,0.3-1.8,0.6l-0.1-0.8c0.5-0.3,1.4-0.6,2.1-0.6c1.4,0,2.4,0.7,2.4,2
			c0,1-0.6,1.6-1.5,1.9c1,0.2,1.8,0.8,1.8,2c0,1.4-1.1,2.4-2.9,2.4C-535.3,64.3-536.1,64-536.6,63.7z"/>
		<path fill="#555555" d="M-529.3,60.5v-0.7c0-2.8,1.4-3.8,3-3.8c1.6,0,2.9,1,2.9,3.8v0.7c0,2.7-1.2,3.8-2.9,3.8
			C-528,64.3-529.3,63.2-529.3,60.5z M-524.5,60.6v-0.9c0-2-0.7-3-1.9-3c-1.3,0-1.9,0.9-1.9,2.9v0.9c0,2,0.7,3,1.9,3
			C-525.1,63.5-524.5,62.7-524.5,60.6z"/>
		<path fill="#555555" d="M-517.3,63.3v-2h-4.3v-0.8h9.5v0.8h-4.3v2H-517.3z M-520.3,59.4v-4h0.9v1.3h5.2v-1.3h0.9v4H-520.3z
			 M-520.3,65.2v-2.8h0.9v2.1h6.3v0.8H-520.3z M-514.2,57.4h-5.2v1.2h5.2V57.4z"/>
		<path fill="#555555" d="M-508.9,60.6v-0.3c0-1.8-0.9-3.7-1.9-4.9h0.8c1.1,1.1,2.1,2.8,2.1,4.9v0.2c0,2.1-0.9,3.8-2.1,4.9h-0.8
			C-509.7,64.2-508.9,62.5-508.9,60.6z"/>
	</g>
	
		<rect x="-326.7" y="41.6" fill="#EAFAFF" stroke="#555555" stroke-width="3" stroke-linecap="round" stroke-linejoin="round" stroke-miterlimit="10" width="200" height="40"/>
	<g>
		<path fill="#555555" d="M-267.6,65.5v-3.7h-2.4V61h9.5v0.8h-2.5v3.7h-0.9v-3.7h-2.7v3.7H-267.6z M-265.3,60.1
			c-2.3,0-3.7-0.9-3.7-2.3c0-1.4,1.4-2.3,3.7-2.3c2.3,0,3.7,0.9,3.7,2.3C-261.6,59.1-263,60.1-265.3,60.1z M-268.2,57.8
			c0,0.9,1.1,1.5,2.8,1.5c1.8,0,2.8-0.6,2.8-1.5c0-0.9-1.1-1.5-2.8-1.5C-267.1,56.3-268.2,56.9-268.2,57.8z"/>
		<path fill="#555555" d="M-259.7,64.2v-0.8h2.5v-1.4h0.9v1.4h2.7v-1.4h0.9v1.4h2.5v0.8H-259.7z M-259.1,57.9v-0.8h8.3v0.8H-259.1z
			 M-254.9,61.9c-2,0-3.2-0.6-3.2-1.8c0-1.2,1.3-1.8,3.2-1.8c2,0,3.2,0.6,3.2,1.8C-251.7,61.3-253,61.9-254.9,61.9z M-254.9,59.1
			c-1.2,0-2.3,0.3-2.3,1.1c0,0.7,1.1,1.1,2.3,1.1c1.2,0,2.3-0.3,2.3-1.1C-252.6,59.4-253.8,59.1-254.9,59.1z M-256.9,56.3v-0.8h3.8
			v0.8H-256.9z"/>
		<path fill="#555555" d="M-249.3,57.7V57h6.1v0.8H-249.3z M-246.3,62c-1.4,0-2.5-0.7-2.5-1.8c0-1.1,1.1-1.8,2.5-1.8
			c1.4,0,2.5,0.7,2.5,1.8C-243.8,61.3-244.9,62-246.3,62z M-246.3,59c-0.8,0-1.6,0.4-1.6,1.1c0,0.7,0.8,1.1,1.6,1.1
			c0.9,0,1.6-0.4,1.6-1.1C-244.7,59.5-245.4,59-246.3,59z M-247.9,56.2v-0.8h3v0.8H-247.9z M-247.8,65.2v-2.7h0.9v1.9h6.1v0.8
			H-247.8z M-241.2,59.3v3.4h-0.9V55h0.9v3.5h1.6v0.8H-241.2z"/>
		<path fill="#555555" d="M-227.9,60.4h1.6v0.8h-4.3v4.3h-0.9v-4.3h-4.3v-0.8h6.9c0.3-1.1,0.3-2.9,0.3-3.9h-6.2v-0.8h7.1
			C-227.5,57.2-227.6,58.8-227.9,60.4z"/>
		<path fill="#555555" d="M-220.3,55.9c-0.1,2.9-2.1,4.9-4.7,5.7l-0.5-0.8c2.3-0.6,3.9-2.2,4.2-4.2h-3.8v-0.8H-220.3z M-223.9,65.2
			V62h0.9v2.5h6v0.8H-223.9z M-217.3,59.1v3.8h-0.9V55h0.9v3.3h1.6v0.8H-217.3z"/>
		<path fill="#555555" d="M-214.8,60.5v-0.2c0-2.1,1-3.8,2.1-4.9h0.8c-1.1,1.2-1.9,2.9-1.9,4.8v0.3c0,1.8,0.9,3.7,1.9,4.9h-0.8
			C-213.8,64.3-214.8,62.6-214.8,60.5z"/>
		<path fill="#555555" d="M-211,63.7l0.2-0.8c0.5,0.3,1.3,0.5,1.9,0.5c1.3,0,2.1-0.6,2.1-1.6c0-1-0.8-1.5-2-1.5h-0.8v-0.8h0.7
			c1,0,1.8-0.5,1.8-1.4c0-1-0.6-1.3-1.6-1.3c-0.7,0-1.3,0.3-1.8,0.6l-0.1-0.8c0.5-0.3,1.4-0.6,2.1-0.6c1.4,0,2.4,0.7,2.4,2
			c0,1-0.6,1.6-1.5,1.9c1,0.2,1.8,0.8,1.8,2c0,1.4-1.1,2.4-2.9,2.4C-209.8,64.3-210.6,64-211,63.7z"/>
		<path fill="#555555" d="M-204.4,60.5v-0.7c0-2.8,1.4-3.8,3-3.8c1.6,0,2.9,1,2.9,3.8v0.7c0,2.7-1.2,3.8-2.9,3.8
			C-203.1,64.3-204.4,63.2-204.4,60.5z M-199.5,60.6v-0.9c0-2-0.7-3-1.9-3c-1.3,0-1.9,0.9-1.9,2.9v0.9c0,2,0.7,3,1.9,3
			C-200.2,63.5-199.5,62.7-199.5,60.6z"/>
		<path fill="#555555" d="M-193,63.3v-2h-4.3v-0.8h9.5v0.8h-4.3v2H-193z M-196,59.4v-4h0.9v1.3h5.2v-1.3h0.9v4H-196z M-196,65.2
			v-2.8h0.9v2.1h6.3v0.8H-196z M-189.9,57.4h-5.2v1.2h5.2V57.4z"/>
		<path fill="#555555" d="M-185.1,60.6v-0.3c0-1.8-0.9-3.7-1.9-4.9h0.8c1.1,1.1,2.1,2.8,2.1,4.9v0.2c0,2.1-0.9,3.8-2.1,4.9h-0.8
			C-186,64.2-185.1,62.5-185.1,60.6z"/>
	</g>
	<g>
		<path fill="none" stroke="#555555" stroke-width="3" stroke-linecap="round" stroke-linejoin="round" stroke-miterlimit="10" d="
			M-652.7,104.5V128 M-663.5,113.2l10.8-10.8l10.9,10.8"/>
	</g>
	<g>
		<path fill="none" stroke="#555555" stroke-width="3" stroke-linecap="round" stroke-linejoin="round" stroke-miterlimit="10" d="
			M-326.7,104.5V128 M-337.5,113.2l10.8-10.8l10.9,10.8"/>
	</g>
	
		<text transform="matrix(1 0 0 1 -802.2424 -92.3316)" fill="#555555" font-family="'AppleSDGothicNeo-Regular-KSCpc-EUC-H'" font-size="12px">유효한 구간(30분)</text>
</g>
<g id="Layer_2">
	<g>
		<path fill="#555555" d="M202.5,136.2h0.8l-2.8,10h-0.8L202.5,136.2z"/>
		<path fill="#555555" d="M204,143.3V139h0.9v4.2c0,0.8,0.3,1.1,1.2,1.1c0.6,0,1.2-0.2,1.7-0.5V139h0.9v5.9h-0.8l-0.1-0.5h0
			c-0.5,0.4-1.2,0.6-1.9,0.6C204.7,145.1,204,144.5,204,143.3z"/>
		<path fill="#555555" d="M210,144.6v-0.7c0.5,0.2,0.9,0.4,1.8,0.4c0.9,0,1.3-0.3,1.3-0.9c0-0.6-0.3-0.8-1-1l-0.6-0.2
			c-0.9-0.2-1.5-0.6-1.5-1.6c0-1,0.7-1.7,2-1.7c0.8,0,1.3,0.2,1.6,0.3v0.7c-0.3-0.2-0.9-0.3-1.6-0.3c-0.8,0-1.2,0.3-1.2,0.8
			c0,0.5,0.3,0.7,0.9,0.9l0.6,0.2c1.1,0.3,1.6,0.7,1.6,1.7c0,1.1-0.8,1.8-2.1,1.8C211.1,145,210.5,144.9,210,144.6z"/>
		<path fill="#555555" d="M215,142.1v-0.2c0-2.1,1.2-3,2.6-3c1.6,0,2.4,0.9,2.4,2.8v0.5h-4.1c0,1.5,0.8,2.1,2,2.1
			c0.8,0,1.3-0.2,1.9-0.4v0.7c-0.4,0.3-1,0.6-2,0.6C216,145.1,215,143.9,215,142.1z M215.9,141.5h3.1c0-1.3-0.5-1.8-1.5-1.8
			C216.8,139.6,216,140.1,215.9,141.5z"/>
		<path fill="#555555" d="M221.4,139h0.9v0.7h0.1c0.3-0.4,1-0.7,1.7-0.7c0.1,0,0.3,0,0.4,0v0.8c-0.2,0-0.3,0-0.4,0
			c-0.6,0-1.2,0.2-1.6,0.5v4.7h-0.9V139z"/>
		<path fill="#555555" d="M225.1,144.6v-0.7c0.5,0.2,0.9,0.4,1.8,0.4c0.9,0,1.3-0.3,1.3-0.9c0-0.6-0.3-0.8-1-1l-0.6-0.2
			c-0.9-0.2-1.5-0.6-1.5-1.6c0-1,0.7-1.7,2-1.7c0.8,0,1.3,0.2,1.6,0.3v0.7c-0.3-0.2-0.9-0.3-1.6-0.3c-0.8,0-1.2,0.3-1.2,0.8
			c0,0.5,0.3,0.7,0.9,0.9l0.6,0.2c1.1,0.3,1.6,0.7,1.6,1.7c0,1.1-0.8,1.8-2.1,1.8C226.3,145,225.6,144.9,225.1,144.6z"/>
		<path fill="#555555" d="M232.6,136.2h0.8l-2.8,10h-0.8L232.6,136.2z"/>
		<path fill="#555555" d="M233.3,145.3c0-0.6,0.5-1,1.1-1.2v-0.1c-0.3-0.1-0.6-0.3-0.6-0.7c0-0.4,0.2-0.6,0.7-1
			c-0.5-0.3-0.7-0.8-0.7-1.5v0c0-1.2,0.9-1.9,2.2-1.9c0.3,0,0.6,0,0.8,0.1h2v0.7h-1.1c0.3,0.3,0.4,0.6,0.4,1.1v0
			c0,1.3-1,1.9-2.2,1.9c-0.4,0-0.7-0.1-1-0.2c-0.2,0.1-0.3,0.3-0.3,0.5c0,0.3,0.2,0.4,0.6,0.4h1.6c1.1,0,1.9,0.3,1.9,1.4
			c0,1-0.8,1.8-2.8,1.8C234.1,146.7,233.3,146.2,233.3,145.3z M237.8,145c0-0.6-0.3-0.7-1.1-0.7H235c-0.5,0.2-0.8,0.4-0.8,0.9
			c0,0.5,0.5,0.8,1.7,0.8C237.3,146,237.8,145.6,237.8,145z M237.2,140.8L237.2,140.8c0-0.9-0.5-1.2-1.3-1.2c-0.8,0-1.3,0.4-1.3,1.2
			v0.1c0,0.8,0.5,1.2,1.3,1.2C236.8,142,237.2,141.6,237.2,140.8z"/>
		<path fill="#555555" d="M239.5,142.1v-0.2c0-2.1,1.2-3,2.6-3c1.6,0,2.4,0.9,2.4,2.8v0.5h-4.1c0,1.5,0.8,2.1,2,2.1
			c0.8,0,1.3-0.2,1.9-0.4v0.7c-0.4,0.3-1,0.6-2,0.6C240.5,145.1,239.5,143.9,239.5,142.1z M240.5,141.5h3.1c0-1.3-0.5-1.8-1.5-1.8
			C241.4,139.6,240.6,140.1,240.5,141.5z"/>
		<path fill="#555555" d="M246.3,143.6v-3.8h-0.9V139h0.9v-1.4h0.9v1.4h1.5v0.8h-1.5v3.7c0,0.6,0.2,0.8,0.9,0.8c0.3,0,0.5,0,0.8-0.1
			v0.6c-0.2,0.1-0.5,0.2-1,0.2C246.9,145,246.3,144.6,246.3,143.6z"/>
		<path fill="#555555" d="M252.1,137.7h-2.5v-0.8h5.9v0.8H253v7.2h-0.9V137.7z"/>
		<path fill="#555555" d="M256.3,142.1v-0.2c0-1.9,1.1-3,2.7-3c1.7,0,2.7,1.1,2.7,3v0.2c0,1.9-1.1,3-2.7,3
			C257.3,145.1,256.3,144,256.3,142.1z M260.8,142.1v-0.3c0-1.7-0.8-2.2-1.8-2.2c-1.1,0-1.8,0.8-1.8,2.2v0.3c0,1.7,0.8,2.2,1.8,2.2
			C260.1,144.3,260.8,143.5,260.8,142.1z"/>
		<path fill="#555555" d="M263.1,136.4h0.9v8.6h-0.9V136.4z M264.1,141.9l2.4-2.9h1l-2.3,2.8l2.5,3.1h-1.1L264.1,141.9z"/>
		<path fill="#555555" d="M268.5,142.1v-0.2c0-2.1,1.2-3,2.6-3c1.6,0,2.4,0.9,2.4,2.8v0.5h-4.1c0,1.5,0.8,2.1,2,2.1
			c0.8,0,1.3-0.2,1.9-0.4v0.7c-0.4,0.3-1,0.6-2,0.6C269.4,145.1,268.5,143.9,268.5,142.1z M269.4,141.5h3.1c0-1.3-0.5-1.8-1.5-1.8
			C270.3,139.6,269.5,140.1,269.4,141.5z"/>
		<path fill="#555555" d="M274.8,139h0.9v0.5h0c0.6-0.4,1.3-0.6,2.1-0.6c1.2,0,1.7,0.5,1.7,1.6v4.4h-0.9v-4.2c0-0.7-0.3-1-1.2-1
			c-0.6,0-1.2,0.2-1.7,0.4v4.8h-0.9V139z"/>
		<path fill="#555555" d="M286,142.9v1.4h4.3v0.8h-9.5v-0.8h4.3v-1.4c-1.8-0.1-2.9-0.7-2.9-1.8c0-1.2,1.3-1.8,3.4-1.8
			c2.1,0,3.4,0.6,3.4,1.8C289,142.2,287.8,142.8,286,142.9z M281.3,138.8V138h8.6v0.8H281.3z M285.6,140.1c-1.2,0-2.4,0.3-2.4,1.1
			c0,0.7,1.2,1.1,2.4,1.1c1.2,0,2.4-0.3,2.4-1.1C288,140.4,286.8,140.1,285.6,140.1z M283.7,137.1v-0.8h3.8v0.8H283.7z"/>
		<path fill="#555555" d="M292.4,146.1v-2.3h6.2V143h-6.2v-0.7h3.1v-0.9h-4.3v-0.7h9.5v0.7h-4.3v0.9h3.1v2.2h-6.2v0.9h6.6v0.7H292.4
			z M299.8,140.2c-1.5-0.2-3.2-0.7-3.8-1.6c-0.6,0.9-2.2,1.5-3.8,1.6l-0.4-0.7c1.6-0.1,3.3-0.6,3.6-1.5h-3.1v-0.7h7.4v0.7h-3.1
			c0.4,0.8,2.2,1.3,3.7,1.4L299.8,140.2z M294.3,136.6v-0.7h3.4v0.7H294.3z"/>
		<path fill="#555555" d="M194.9,162.2l-0.5-0.7c2.7-1.2,4.2-3.4,4.4-5.8h-4v-0.8h5C199.7,158.3,197.6,160.9,194.9,162.2z
			 M201.9,164.3v-10.5h0.9v10.5H201.9z"/>
		<path fill="#555555" d="M204.7,160.2v-0.8h4.3v-1.7h0.9v1.7h4.3v0.8H204.7z M213.2,158.4c-1.8-0.3-3.3-1.2-3.9-2.2
			c-0.4,1-2,1.9-3.8,2.2l-0.4-0.8c1.8-0.2,3.7-1.1,3.8-2.5h-3.4v-0.8h7.8v0.8h-3.4c0.1,1.4,2.2,2.4,3.8,2.5L213.2,158.4z M205.8,164
			v-3h0.9v2.2h6.4v0.8H205.8z"/>
		<path fill="#555555" d="M218.2,161.4c0-1,0.7-1.6,1.8-1.7l1.6-0.2v-0.6c0-0.9-0.4-1.2-1.5-1.2c-0.6,0-1,0.1-1.4,0.2v-0.7
			c0.5-0.2,1.1-0.3,1.8-0.3c1.3,0,2,0.5,2,1.8v4.3h-0.7l-0.1-0.5h-0.1c-0.3,0.3-0.8,0.6-1.6,0.6C219,163.1,218.2,162.5,218.2,161.4z
			 M221.6,161.9v-1.8l-1.4,0.2c-0.7,0.1-1.1,0.4-1.1,1.1c0,0.6,0.4,1,1.1,1C220.8,162.3,221.4,162.2,221.6,161.9z"/>
		<path fill="#555555" d="M223.9,160.1v-0.2c0-2.1,1.2-3,2.8-3c0.8,0,1.2,0.1,1.6,0.4v0.8c-0.5-0.2-0.9-0.4-1.7-0.4
			c-1.1,0-1.8,0.7-1.8,2.1v0.3c0,1.5,0.6,2.2,1.9,2.2c0.8,0,1.3-0.3,1.6-0.4v0.7c-0.4,0.2-0.9,0.5-1.7,0.5
			C224.9,163.1,223.9,162.1,223.9,160.1z"/>
		<path fill="#555555" d="M229.3,160.1v-0.2c0-2.1,1.2-3,2.8-3c0.8,0,1.2,0.1,1.6,0.4v0.8c-0.5-0.2-0.9-0.4-1.7-0.4
			c-1.1,0-1.8,0.7-1.8,2.1v0.3c0,1.5,0.6,2.2,1.9,2.2c0.8,0,1.3-0.3,1.6-0.4v0.7c-0.4,0.2-0.9,0.5-1.7,0.5
			C230.3,163.1,229.3,162.1,229.3,160.1z"/>
		<path fill="#555555" d="M234.7,160.1v-0.2c0-2.1,1.2-3,2.6-3c1.6,0,2.4,0.9,2.4,2.8v0.5h-4.1c0,1.5,0.8,2.1,2,2.1
			c0.8,0,1.3-0.2,1.9-0.4v0.7c-0.4,0.3-1,0.6-2,0.6C235.6,163.1,234.7,161.9,234.7,160.1z M235.6,159.5h3.1c0-1.3-0.5-1.8-1.5-1.8
			C236.5,157.6,235.7,158.1,235.6,159.5z"/>
		<path fill="#555555" d="M240.7,162.6v-0.7c0.5,0.2,0.9,0.4,1.8,0.4c0.9,0,1.3-0.3,1.3-0.9c0-0.6-0.3-0.8-1-1l-0.6-0.2
			c-0.9-0.2-1.5-0.6-1.5-1.6c0-1,0.7-1.7,2-1.7c0.8,0,1.3,0.2,1.6,0.3v0.7c-0.3-0.2-0.9-0.3-1.6-0.3c-0.8,0-1.2,0.3-1.2,0.8
			c0,0.5,0.3,0.7,0.9,0.9l0.6,0.2c1.1,0.3,1.6,0.7,1.6,1.7c0,1.1-0.8,1.8-2.1,1.8C241.8,163,241.2,162.9,240.7,162.6z"/>
		<path fill="#555555" d="M245.6,162.6v-0.7c0.5,0.2,0.9,0.4,1.8,0.4c0.9,0,1.3-0.3,1.3-0.9c0-0.6-0.3-0.8-1-1l-0.6-0.2
			c-0.9-0.2-1.5-0.6-1.5-1.6c0-1,0.7-1.7,2-1.7c0.8,0,1.3,0.2,1.6,0.3v0.7c-0.3-0.2-0.9-0.3-1.6-0.3c-0.8,0-1.2,0.3-1.2,0.8
			c0,0.5,0.3,0.7,0.9,0.9l0.6,0.2c1.1,0.3,1.6,0.7,1.6,1.7c0,1.1-0.8,1.8-2.1,1.8C246.8,163,246.1,162.9,245.6,162.6z"/>
		<path fill="#555555" d="M250.3,163.5h3.8v0.6h-3.8V163.5z"/>
		<path fill="#555555" d="M255.4,161.6v-3.8h-0.9V157h0.9v-1.4h0.9v1.4h1.5v0.8h-1.5v3.7c0,0.6,0.2,0.8,0.9,0.8c0.3,0,0.5,0,0.8-0.1
			v0.6c-0.2,0.1-0.5,0.2-1,0.2C256,163,255.4,162.6,255.4,161.6z"/>
		<path fill="#555555" d="M258.9,160.1v-0.2c0-1.9,1.1-3,2.7-3c1.7,0,2.7,1.1,2.7,3v0.2c0,1.9-1.1,3-2.7,3
			C259.9,163.1,258.9,162,258.9,160.1z M263.4,160.1v-0.3c0-1.7-0.8-2.2-1.8-2.2c-1.1,0-1.8,0.8-1.8,2.2v0.3c0,1.7,0.8,2.2,1.8,2.2
			C262.7,162.3,263.4,161.5,263.4,160.1z"/>
		<path fill="#555555" d="M265.7,154.4h0.9v8.6h-0.9V154.4z M266.7,159.9l2.4-2.9h1l-2.3,2.8l2.5,3.1h-1.1L266.7,159.9z"/>
		<path fill="#555555" d="M271,160.1v-0.2c0-2.1,1.2-3,2.6-3c1.6,0,2.4,0.9,2.4,2.8v0.5H272c0,1.5,0.8,2.1,2,2.1
			c0.8,0,1.3-0.2,1.9-0.4v0.7c-0.4,0.3-1,0.6-2,0.6C272,163.1,271,161.9,271,160.1z M272,159.5h3.1c0-1.3-0.5-1.8-1.5-1.8
			C272.9,157.6,272.1,158.1,272,159.5z"/>
		<path fill="#555555" d="M277.4,157h0.9v0.5h0c0.6-0.4,1.3-0.6,2.1-0.6c1.2,0,1.7,0.5,1.7,1.6v4.4h-0.9v-4.2c0-0.7-0.3-1-1.2-1
			c-0.6,0-1.2,0.2-1.7,0.4v4.8h-0.9V157z"/>
		<path fill="#555555" d="M286.6,159.5v-0.8h9.5v0.8H286.6z M291.3,164.2c-2.3,0-3.7-0.7-3.7-1.9c0-1.2,1.4-1.9,3.7-1.9
			c2.3,0,3.7,0.7,3.7,1.9C295,163.5,293.6,164.2,291.3,164.2z M291.3,157.9c-2.3,0-3.6-0.8-3.6-2c0-1.2,1.4-2,3.6-2
			c2.3,0,3.7,0.8,3.7,2C295,157.2,293.6,157.9,291.3,157.9z M288.5,162.3c0,0.8,1.1,1.2,2.8,1.2c1.7,0,2.8-0.4,2.8-1.2
			c0-0.8-1.1-1.2-2.8-1.2C289.6,161.1,288.5,161.5,288.5,162.3z M291.3,154.7c-1.7,0-2.8,0.5-2.8,1.2c0,0.8,1.1,1.2,2.8,1.2
			c1.7,0,2.8-0.5,2.8-1.2C294.1,155.2,293,154.7,291.3,154.7z"/>
		<path fill="#555555" d="M298.8,158.2c1.5,0,3.1-0.2,4.1-0.4l0.1,0.8c-1.2,0.2-3,0.4-4.8,0.4h-0.9v-4.5h4.7v0.8h-3.8v2.9H298.8z
			 M298.4,164.2V160h0.9v1.3h4.8V160h0.9v4.2H298.4z M304.1,162.1h-4.8v1.3h4.8V162.1z M305,157.1v2.4h-0.9v-5.6h0.9v2.5h1.6v0.8
			H305z"/>
	</g>
	<g>
		<path fill="#555555" d="M53.5,136.2h0.8l-2.8,10h-0.8L53.5,136.2z"/>
		<path fill="#555555" d="M55,143.3V139h0.9v4.2c0,0.8,0.3,1.1,1.2,1.1c0.6,0,1.2-0.2,1.7-0.5V139h0.9v5.9h-0.8l-0.1-0.5h0
			c-0.5,0.4-1.2,0.6-1.9,0.6C55.7,145.1,55,144.5,55,143.3z"/>
		<path fill="#555555" d="M61,144.6v-0.7c0.5,0.2,0.9,0.4,1.8,0.4c0.9,0,1.3-0.3,1.3-0.9c0-0.6-0.3-0.8-1-1l-0.6-0.2
			c-0.9-0.2-1.5-0.6-1.5-1.6c0-1,0.7-1.7,2-1.7c0.8,0,1.3,0.2,1.6,0.3v0.7c-0.3-0.2-0.9-0.3-1.6-0.3c-0.8,0-1.2,0.3-1.2,0.8
			c0,0.5,0.3,0.7,0.9,0.9l0.6,0.2c1.1,0.3,1.6,0.7,1.6,1.7c0,1.1-0.8,1.8-2.1,1.8C62.1,145,61.5,144.9,61,144.6z"/>
		<path fill="#555555" d="M66,142.1v-0.2c0-2.1,1.2-3,2.6-3c1.6,0,2.4,0.9,2.4,2.8v0.5h-4.1c0,1.5,0.8,2.1,2,2.1
			c0.8,0,1.3-0.2,1.9-0.4v0.7c-0.4,0.3-1,0.6-2,0.6C67,145.1,66,143.9,66,142.1z M66.9,141.5H70c0-1.3-0.5-1.8-1.5-1.8
			C67.8,139.6,67,140.1,66.9,141.5z"/>
		<path fill="#555555" d="M72.4,139h0.9v0.7h0.1c0.3-0.4,1-0.7,1.7-0.7c0.1,0,0.3,0,0.4,0v0.8c-0.2,0-0.3,0-0.4,0
			c-0.6,0-1.2,0.2-1.6,0.5v4.7h-0.9V139z"/>
		<path fill="#555555" d="M76.1,144.6v-0.7c0.5,0.2,0.9,0.4,1.8,0.4c0.9,0,1.3-0.3,1.3-0.9c0-0.6-0.3-0.8-1-1l-0.6-0.2
			c-0.9-0.2-1.5-0.6-1.5-1.6c0-1,0.7-1.7,2-1.7c0.8,0,1.3,0.2,1.6,0.3v0.7c-0.3-0.2-0.9-0.3-1.6-0.3c-0.8,0-1.2,0.3-1.2,0.8
			c0,0.5,0.3,0.7,0.9,0.9l0.6,0.2c1.1,0.3,1.6,0.7,1.6,1.7c0,1.1-0.8,1.8-2.1,1.8C77.3,145,76.6,144.9,76.1,144.6z"/>
		<path fill="#555555" d="M83.6,136.2h0.8l-2.8,10h-0.8L83.6,136.2z"/>
		<path fill="#555555" d="M84.3,145.3c0-0.6,0.5-1,1.1-1.2v-0.1c-0.3-0.1-0.6-0.3-0.6-0.7c0-0.4,0.2-0.6,0.7-1
			c-0.5-0.3-0.7-0.8-0.7-1.5v0c0-1.2,0.9-1.9,2.2-1.9c0.3,0,0.6,0,0.8,0.1h2v0.7h-1.1c0.3,0.3,0.4,0.6,0.4,1.1v0
			c0,1.3-1,1.9-2.2,1.9c-0.4,0-0.7-0.1-1-0.2c-0.2,0.1-0.3,0.3-0.3,0.5c0,0.3,0.2,0.4,0.6,0.4h1.6c1.1,0,1.9,0.3,1.9,1.4
			c0,1-0.8,1.8-2.8,1.8C85.1,146.7,84.3,146.2,84.3,145.3z M88.8,145c0-0.6-0.3-0.7-1.1-0.7H86c-0.5,0.2-0.8,0.4-0.8,0.9
			c0,0.5,0.5,0.8,1.7,0.8C88.3,146,88.8,145.6,88.8,145z M88.2,140.8L88.2,140.8c0-0.9-0.5-1.2-1.3-1.2c-0.8,0-1.3,0.4-1.3,1.2v0.1
			c0,0.8,0.5,1.2,1.3,1.2C87.8,142,88.2,141.6,88.2,140.8z"/>
		<path fill="#555555" d="M90.5,142.1v-0.2c0-2.1,1.2-3,2.6-3c1.6,0,2.4,0.9,2.4,2.8v0.5h-4.1c0,1.5,0.8,2.1,2,2.1
			c0.8,0,1.3-0.2,1.9-0.4v0.7c-0.4,0.3-1,0.6-2,0.6C91.5,145.1,90.5,143.9,90.5,142.1z M91.5,141.5h3.1c0-1.3-0.5-1.8-1.5-1.8
			C92.4,139.6,91.6,140.1,91.5,141.5z"/>
		<path fill="#555555" d="M97.3,143.6v-3.8h-0.9V139h0.9v-1.4h0.9v1.4h1.5v0.8h-1.5v3.7c0,0.6,0.2,0.8,0.9,0.8c0.3,0,0.5,0,0.8-0.1
			v0.6c-0.2,0.1-0.5,0.2-1,0.2C97.9,145,97.3,144.6,97.3,143.6z"/>
		<path fill="#555555" d="M103.1,137.7h-2.5v-0.8h5.9v0.8H104v7.2h-0.9V137.7z"/>
		<path fill="#555555" d="M107.3,142.1v-0.2c0-1.9,1.1-3,2.7-3c1.7,0,2.7,1.1,2.7,3v0.2c0,1.9-1.1,3-2.7,3
			C108.3,145.1,107.3,144,107.3,142.1z M111.8,142.1v-0.3c0-1.7-0.8-2.2-1.8-2.2c-1.1,0-1.8,0.8-1.8,2.2v0.3c0,1.7,0.8,2.2,1.8,2.2
			C111.1,144.3,111.8,143.5,111.8,142.1z"/>
		<path fill="#555555" d="M114.1,136.4h0.9v8.6h-0.9V136.4z M115.1,141.9l2.4-2.9h1l-2.3,2.8l2.5,3.1h-1.1L115.1,141.9z"/>
		<path fill="#555555" d="M119.5,142.1v-0.2c0-2.1,1.2-3,2.6-3c1.6,0,2.4,0.9,2.4,2.8v0.5h-4.1c0,1.5,0.8,2.1,2,2.1
			c0.8,0,1.3-0.2,1.9-0.4v0.7c-0.4,0.3-1,0.6-2,0.6C120.4,145.1,119.5,143.9,119.5,142.1z M120.4,141.5h3.1c0-1.3-0.5-1.8-1.5-1.8
			C121.3,139.6,120.5,140.1,120.4,141.5z"/>
		<path fill="#555555" d="M125.8,139h0.9v0.5h0c0.6-0.4,1.3-0.6,2.1-0.6c1.2,0,1.7,0.5,1.7,1.6v4.4h-0.9v-4.2c0-0.7-0.3-1-1.2-1
			c-0.6,0-1.2,0.2-1.7,0.4v4.8h-0.9V139z"/>
		<path fill="#555555" d="M137,142.9v1.4h4.3v0.8h-9.5v-0.8h4.3v-1.4c-1.8-0.1-2.9-0.7-2.9-1.8c0-1.2,1.3-1.8,3.4-1.8
			c2.1,0,3.4,0.6,3.4,1.8C140,142.2,138.8,142.8,137,142.9z M132.3,138.8V138h8.6v0.8H132.3z M136.6,140.1c-1.2,0-2.4,0.3-2.4,1.1
			c0,0.7,1.2,1.1,2.4,1.1c1.2,0,2.4-0.3,2.4-1.1C139,140.4,137.8,140.1,136.6,140.1z M134.7,137.1v-0.8h3.8v0.8H134.7z"/>
		<path fill="#555555" d="M143.4,146.1v-2.3h6.2V143h-6.2v-0.7h3.1v-0.9h-4.3v-0.7h9.5v0.7h-4.3v0.9h3.1v2.2h-6.2v0.9h6.6v0.7H143.4
			z M150.8,140.2c-1.5-0.2-3.2-0.7-3.8-1.6c-0.6,0.9-2.2,1.5-3.8,1.6l-0.4-0.7c1.6-0.1,3.3-0.6,3.6-1.5h-3.1v-0.7h7.4v0.7h-3.1
			c0.4,0.8,2.2,1.3,3.7,1.4L150.8,140.2z M145.3,136.6v-0.7h3.4v0.7H145.3z"/>
		<path fill="#555555" d="M57.2,161.4c0-1,0.7-1.6,1.8-1.7l1.6-0.2v-0.6c0-0.9-0.4-1.2-1.5-1.2c-0.6,0-1,0.1-1.4,0.2v-0.7
			c0.5-0.2,1.1-0.3,1.8-0.3c1.3,0,2,0.5,2,1.8v4.3h-0.7l-0.1-0.5h-0.1c-0.3,0.3-0.8,0.6-1.6,0.6C58,163.1,57.2,162.5,57.2,161.4z
			 M60.7,161.9v-1.8l-1.4,0.2c-0.7,0.1-1.1,0.4-1.1,1.1c0,0.6,0.4,1,1.1,1C59.9,162.3,60.4,162.2,60.7,161.9z"/>
		<path fill="#555555" d="M62.9,160.1v-0.2c0-2.1,1.2-3,2.8-3c0.8,0,1.2,0.1,1.6,0.4v0.8c-0.5-0.2-0.9-0.4-1.7-0.4
			c-1.1,0-1.8,0.7-1.8,2.1v0.3c0,1.5,0.6,2.2,1.9,2.2c0.8,0,1.3-0.3,1.6-0.4v0.7c-0.4,0.2-0.9,0.5-1.7,0.5
			C64,163.1,62.9,162.1,62.9,160.1z"/>
		<path fill="#555555" d="M68.3,160.1v-0.2c0-2.1,1.2-3,2.8-3c0.8,0,1.2,0.1,1.6,0.4v0.8c-0.5-0.2-0.9-0.4-1.7-0.4
			c-1.1,0-1.8,0.7-1.8,2.1v0.3c0,1.5,0.6,2.2,1.9,2.2c0.8,0,1.3-0.3,1.6-0.4v0.7c-0.4,0.2-0.9,0.5-1.7,0.5
			C69.4,163.1,68.3,162.1,68.3,160.1z"/>
		<path fill="#555555" d="M73.7,160.1v-0.2c0-2.1,1.2-3,2.6-3c1.6,0,2.4,0.9,2.4,2.8v0.5h-4.1c0,1.5,0.8,2.1,2,2.1
			c0.8,0,1.3-0.2,1.9-0.4v0.7c-0.4,0.3-1,0.6-2,0.6C74.7,163.1,73.7,161.9,73.7,160.1z M74.7,159.5h3.1c0-1.3-0.5-1.8-1.5-1.8
			C75.6,157.6,74.8,158.1,74.7,159.5z"/>
		<path fill="#555555" d="M79.7,162.6v-0.7c0.5,0.2,0.9,0.4,1.8,0.4c0.9,0,1.3-0.3,1.3-0.9c0-0.6-0.3-0.8-1-1l-0.6-0.2
			c-0.9-0.2-1.5-0.6-1.5-1.6c0-1,0.7-1.7,2-1.7c0.8,0,1.3,0.2,1.6,0.3v0.7c-0.3-0.2-0.9-0.3-1.6-0.3c-0.8,0-1.2,0.3-1.2,0.8
			c0,0.5,0.3,0.7,0.9,0.9l0.6,0.2c1.1,0.3,1.6,0.7,1.6,1.7c0,1.1-0.8,1.8-2.1,1.8C80.8,163,80.2,162.9,79.7,162.6z"/>
		<path fill="#555555" d="M84.7,162.6v-0.7c0.5,0.2,0.9,0.4,1.8,0.4c0.9,0,1.3-0.3,1.3-0.9c0-0.6-0.3-0.8-1-1l-0.6-0.2
			c-0.9-0.2-1.5-0.6-1.5-1.6c0-1,0.7-1.7,2-1.7c0.8,0,1.3,0.2,1.6,0.3v0.7c-0.3-0.2-0.9-0.3-1.6-0.3c-0.8,0-1.2,0.3-1.2,0.8
			c0,0.5,0.3,0.7,0.9,0.9l0.6,0.2c1.1,0.3,1.6,0.7,1.6,1.7c0,1.1-0.8,1.8-2.1,1.8C85.8,163,85.2,162.9,84.7,162.6z"/>
		<path fill="#555555" d="M89.3,163.5h3.8v0.6h-3.8V163.5z"/>
		<path fill="#555555" d="M94.4,161.6v-3.8h-0.9V157h0.9v-1.4h0.9v1.4h1.5v0.8h-1.5v3.7c0,0.6,0.2,0.8,0.9,0.8c0.3,0,0.5,0,0.8-0.1
			v0.6c-0.2,0.1-0.5,0.2-1,0.2C95.1,163,94.4,162.6,94.4,161.6z"/>
		<path fill="#555555" d="M97.9,160.1v-0.2c0-1.9,1.1-3,2.7-3c1.7,0,2.7,1.1,2.7,3v0.2c0,1.9-1.1,3-2.7,3
			C98.9,163.1,97.9,162,97.9,160.1z M102.4,160.1v-0.3c0-1.7-0.8-2.2-1.8-2.2c-1.1,0-1.8,0.8-1.8,2.2v0.3c0,1.7,0.8,2.2,1.8,2.2
			C101.7,162.3,102.4,161.5,102.4,160.1z"/>
		<path fill="#555555" d="M104.7,154.4h0.9v8.6h-0.9V154.4z M105.7,159.9l2.4-2.9h1l-2.3,2.8l2.5,3.1h-1.1L105.7,159.9z"/>
		<path fill="#555555" d="M110.1,160.1v-0.2c0-2.1,1.2-3,2.6-3c1.6,0,2.4,0.9,2.4,2.8v0.5H111c0,1.5,0.8,2.1,2,2.1
			c0.8,0,1.3-0.2,1.9-0.4v0.7c-0.4,0.3-1,0.6-2,0.6C111,163.1,110.1,161.9,110.1,160.1z M111,159.5h3.1c0-1.3-0.5-1.8-1.5-1.8
			C111.9,157.6,111.1,158.1,111,159.5z"/>
		<path fill="#555555" d="M116.5,157h0.9v0.5h0c0.6-0.4,1.3-0.6,2.1-0.6c1.2,0,1.7,0.5,1.7,1.6v4.4h-0.9v-4.2c0-0.7-0.3-1-1.2-1
			c-0.6,0-1.2,0.2-1.7,0.4v4.8h-0.9V157z"/>
		<path fill="#555555" d="M126,158.9v-4.7h0.9v1.5h3.1v-1.5h0.9v4.7H126z M130,156.5h-3.1v1.6h3.1V156.5z M127,164.2v-2.6h5.8v-1
			H127v-0.7h6.7v2.5h-5.8v1.2h6.2v0.8H127z M133.7,156.9v2.3h-0.9v-5.4h0.9v2.4h1.6v0.8H133.7z"/>
		<path fill="#555555" d="M135.9,156.5v-0.7h5.3v0.7H135.9z M138.7,160.3c-1.3,0-2.3-0.6-2.3-1.6c0-1,1-1.6,2.3-1.6s2.3,0.6,2.3,1.6
			C141,159.7,140,160.3,138.7,160.3z M137.3,155v-0.8h2.7v0.8H137.3z M138.7,157.7c-0.8,0-1.4,0.4-1.4,0.9c0,0.5,0.6,0.9,1.4,0.9
			c0.8,0,1.4-0.4,1.4-0.9C140.1,158.1,139.5,157.7,138.7,157.7z M141.3,164.3c-2.2,0-3.5-0.7-3.5-1.8c0-1.1,1.3-1.8,3.5-1.8
			c2.2,0,3.5,0.7,3.5,1.8C144.8,163.6,143.5,164.3,141.3,164.3z M138.7,162.5c0,0.6,1,1,2.6,1s2.6-0.4,2.6-1c0-0.6-1-1-2.6-1
			S138.7,161.9,138.7,162.5z M143.9,160.7v-3.1h-1.3v2.7h-0.9V154h0.9v2.8h1.3v-3h0.9v6.9H143.9z"/>
	</g>
	
		<line fill="none" stroke="#555555" stroke-width="3" stroke-linecap="round" stroke-miterlimit="10" x1="359.2" y1="81.6" x2="41.2" y2="81.6"/>
	
		<rect x="100.2" y="41.6" fill="#EAFAFF" stroke="#555555" stroke-width="3" stroke-linecap="round" stroke-linejoin="round" stroke-miterlimit="10" width="200" height="40"/>
	<g>
		<path fill="#555555" d="M159.3,65.5v-3.7h-2.4V61h9.5v0.8h-2.5v3.7h-0.9v-3.7h-2.7v3.7H159.3z M161.6,60.1c-2.3,0-3.7-0.9-3.7-2.3
			c0-1.4,1.4-2.3,3.7-2.3c2.3,0,3.7,0.9,3.7,2.3C165.3,59.1,163.9,60.1,161.6,60.1z M158.8,57.8c0,0.9,1.1,1.5,2.8,1.5
			c1.8,0,2.8-0.6,2.8-1.5c0-0.9-1.1-1.5-2.8-1.5C159.8,56.3,158.8,56.9,158.8,57.8z"/>
		<path fill="#555555" d="M167.2,64.2v-0.8h2.5v-1.4h0.9v1.4h2.7v-1.4h0.9v1.4h2.5v0.8H167.2z M167.8,57.9v-0.8h8.3v0.8H167.8z
			 M172,61.9c-2,0-3.2-0.6-3.2-1.8c0-1.2,1.3-1.8,3.2-1.8c2,0,3.2,0.6,3.2,1.8C175.2,61.3,174,61.9,172,61.9z M172,59.1
			c-1.2,0-2.3,0.3-2.3,1.1c0,0.7,1.1,1.1,2.3,1.1c1.2,0,2.3-0.3,2.3-1.1C174.3,59.4,173.2,59.1,172,59.1z M170.1,56.3v-0.8h3.8v0.8
			H170.1z"/>
		<path fill="#555555" d="M177.6,57.7V57h6.1v0.8H177.6z M180.6,62c-1.4,0-2.5-0.7-2.5-1.8c0-1.1,1.1-1.8,2.5-1.8
			c1.4,0,2.5,0.7,2.5,1.8C183.1,61.3,182.1,62,180.6,62z M180.6,59c-0.8,0-1.6,0.4-1.6,1.1c0,0.7,0.8,1.1,1.6,1.1
			c0.9,0,1.6-0.4,1.6-1.1C182.2,59.5,181.5,59,180.6,59z M179.1,56.2v-0.8h3v0.8H179.1z M179.1,65.2v-2.7h0.9v1.9h6.1v0.8H179.1z
			 M185.7,59.3v3.4h-0.9V55h0.9v3.5h1.6v0.8H185.7z"/>
		<path fill="#555555" d="M199,60.4h1.6v0.8h-4.3v4.3h-0.9v-4.3h-4.3v-0.8h6.9c0.3-1.1,0.3-2.9,0.3-3.9h-6.2v-0.8h7.1
			C199.4,57.2,199.3,58.8,199,60.4z"/>
		<path fill="#555555" d="M206.7,55.9c-0.1,2.9-2.1,4.9-4.7,5.7l-0.5-0.8c2.3-0.6,3.9-2.2,4.2-4.2h-3.8v-0.8H206.7z M203,65.2V62
			h0.9v2.5h6v0.8H203z M209.6,59.1v3.8h-0.9V55h0.9v3.3h1.6v0.8H209.6z"/>
		<path fill="#555555" d="M212.1,60.5v-0.2c0-2.1,1-3.8,2.1-4.9h0.8c-1.1,1.2-1.9,2.9-1.9,4.8v0.3c0,1.8,0.9,3.7,1.9,4.9h-0.8
			C213.1,64.3,212.1,62.6,212.1,60.5z"/>
		<path fill="#555555" d="M215.9,63.7l0.2-0.8c0.5,0.3,1.3,0.5,1.9,0.5c1.3,0,2.1-0.6,2.1-1.6c0-1-0.8-1.5-2-1.5h-0.8v-0.8h0.7
			c1,0,1.8-0.5,1.8-1.4c0-1-0.6-1.3-1.6-1.3c-0.7,0-1.3,0.3-1.8,0.6l-0.1-0.8c0.5-0.3,1.4-0.6,2.1-0.6c1.4,0,2.4,0.7,2.4,2
			c0,1-0.6,1.6-1.5,1.9c1,0.2,1.8,0.8,1.8,2c0,1.4-1.1,2.4-2.9,2.4C217.1,64.3,216.3,64,215.9,63.7z"/>
		<path fill="#555555" d="M222.5,60.5v-0.7c0-2.8,1.4-3.8,3-3.8c1.6,0,2.9,1,2.9,3.8v0.7c0,2.7-1.2,3.8-2.9,3.8
			C223.8,64.3,222.5,63.2,222.5,60.5z M227.4,60.6v-0.9c0-2-0.7-3-1.9-3c-1.3,0-1.9,0.9-1.9,2.9v0.9c0,2,0.7,3,1.9,3
			C226.7,63.5,227.4,62.7,227.4,60.6z"/>
		<path fill="#555555" d="M234,63.3v-2h-4.3v-0.8h9.5v0.8h-4.3v2H234z M230.9,59.4v-4h0.9v1.3h5.2v-1.3h0.9v4H230.9z M230.9,65.2
			v-2.8h0.9v2.1h6.3v0.8H230.9z M237,57.4h-5.2v1.2h5.2V57.4z"/>
		<path fill="#555555" d="M241.8,60.6v-0.3c0-1.8-0.9-3.7-1.9-4.9h0.8c1.1,1.1,2.1,2.8,2.1,4.9v0.2c0,2.1-0.9,3.8-2.1,4.9h-0.8
			C240.9,64.2,241.8,62.5,241.8,60.6z"/>
	</g>
	<g>
		<path fill="none" stroke="#555555" stroke-width="3" stroke-linecap="round" stroke-linejoin="round" stroke-miterlimit="10" d="
			M101.3,96.5V120 M90.5,105.2l10.8-10.8l10.9,10.8"/>
	</g>
	<g>
		<path fill="none" stroke="#555555" stroke-width="3" stroke-linecap="round" stroke-linejoin="round" stroke-miterlimit="10" d="
			M250.3,96.5V120 M239.5,105.2l10.8-10.8l10.9,10.8"/>
	</g>
	<g>
		<path fill="#555555" d="M550.5,136.2h0.8l-2.8,10h-0.8L550.5,136.2z"/>
		<path fill="#555555" d="M552,143.3V139h0.9v4.2c0,0.8,0.3,1.1,1.2,1.1c0.6,0,1.2-0.2,1.7-0.5V139h0.9v5.9h-0.8l-0.1-0.5h0
			c-0.5,0.4-1.2,0.6-1.9,0.6C552.7,145.1,552,144.5,552,143.3z"/>
		<path fill="#555555" d="M558,144.6v-0.7c0.5,0.2,0.9,0.4,1.8,0.4c0.9,0,1.3-0.3,1.3-0.9c0-0.6-0.3-0.8-1-1l-0.6-0.2
			c-0.9-0.2-1.5-0.6-1.5-1.6c0-1,0.7-1.7,2-1.7c0.8,0,1.3,0.2,1.6,0.3v0.7c-0.3-0.2-0.9-0.3-1.6-0.3c-0.8,0-1.2,0.3-1.2,0.8
			c0,0.5,0.3,0.7,0.9,0.9l0.6,0.2c1.1,0.3,1.6,0.7,1.6,1.7c0,1.1-0.8,1.8-2.1,1.8C559.1,145,558.5,144.9,558,144.6z"/>
		<path fill="#555555" d="M563,142.1v-0.2c0-2.1,1.2-3,2.6-3c1.6,0,2.4,0.9,2.4,2.8v0.5h-4.1c0,1.5,0.8,2.1,2,2.1
			c0.8,0,1.3-0.2,1.9-0.4v0.7c-0.4,0.3-1,0.6-2,0.6C564,145.1,563,143.9,563,142.1z M563.9,141.5h3.1c0-1.3-0.5-1.8-1.5-1.8
			C564.8,139.6,564,140.1,563.9,141.5z"/>
		<path fill="#555555" d="M569.4,139h0.9v0.7h0.1c0.3-0.4,1-0.7,1.7-0.7c0.1,0,0.3,0,0.4,0v0.8c-0.2,0-0.3,0-0.4,0
			c-0.6,0-1.2,0.2-1.6,0.5v4.7h-0.9V139z"/>
		<path fill="#555555" d="M573.1,144.6v-0.7c0.5,0.2,0.9,0.4,1.8,0.4c0.9,0,1.3-0.3,1.3-0.9c0-0.6-0.3-0.8-1-1l-0.6-0.2
			c-0.9-0.2-1.5-0.6-1.5-1.6c0-1,0.7-1.7,2-1.7c0.8,0,1.3,0.2,1.6,0.3v0.7c-0.3-0.2-0.9-0.3-1.6-0.3c-0.8,0-1.2,0.3-1.2,0.8
			c0,0.5,0.3,0.7,0.9,0.9l0.6,0.2c1.1,0.3,1.6,0.7,1.6,1.7c0,1.1-0.8,1.8-2.1,1.8C574.3,145,573.6,144.9,573.1,144.6z"/>
		<path fill="#555555" d="M580.6,136.2h0.8l-2.8,10h-0.8L580.6,136.2z"/>
		<path fill="#555555" d="M581.3,145.3c0-0.6,0.5-1,1.1-1.2v-0.1c-0.3-0.1-0.6-0.3-0.6-0.7c0-0.4,0.2-0.6,0.7-1
			c-0.5-0.3-0.7-0.8-0.7-1.5v0c0-1.2,0.9-1.9,2.2-1.9c0.3,0,0.6,0,0.8,0.1h2v0.7h-1.1c0.3,0.3,0.4,0.6,0.4,1.1v0
			c0,1.3-1,1.9-2.2,1.9c-0.4,0-0.7-0.1-1-0.2c-0.2,0.1-0.3,0.3-0.3,0.5c0,0.3,0.2,0.4,0.6,0.4h1.6c1.1,0,1.9,0.3,1.9,1.4
			c0,1-0.8,1.8-2.8,1.8C582.1,146.7,581.3,146.2,581.3,145.3z M585.8,145c0-0.6-0.3-0.7-1.1-0.7H583c-0.5,0.2-0.8,0.4-0.8,0.9
			c0,0.5,0.5,0.8,1.7,0.8C585.3,146,585.8,145.6,585.8,145z M585.2,140.8L585.2,140.8c0-0.9-0.5-1.2-1.3-1.2c-0.8,0-1.3,0.4-1.3,1.2
			v0.1c0,0.8,0.5,1.2,1.3,1.2C584.8,142,585.2,141.6,585.2,140.8z"/>
		<path fill="#555555" d="M587.5,142.1v-0.2c0-2.1,1.2-3,2.6-3c1.6,0,2.4,0.9,2.4,2.8v0.5h-4.1c0,1.5,0.8,2.1,2,2.1
			c0.8,0,1.3-0.2,1.9-0.4v0.7c-0.4,0.3-1,0.6-2,0.6C588.5,145.1,587.5,143.9,587.5,142.1z M588.5,141.5h3.1c0-1.3-0.5-1.8-1.5-1.8
			C589.4,139.6,588.6,140.1,588.5,141.5z"/>
		<path fill="#555555" d="M594.3,143.6v-3.8h-0.9V139h0.9v-1.4h0.9v1.4h1.5v0.8h-1.5v3.7c0,0.6,0.2,0.8,0.9,0.8c0.3,0,0.5,0,0.8-0.1
			v0.6c-0.2,0.1-0.5,0.2-1,0.2C594.9,145,594.3,144.6,594.3,143.6z"/>
		<path fill="#555555" d="M600.1,137.7h-2.5v-0.8h5.9v0.8H601v7.2h-0.9V137.7z"/>
		<path fill="#555555" d="M604.3,142.1v-0.2c0-1.9,1.1-3,2.7-3c1.7,0,2.7,1.1,2.7,3v0.2c0,1.9-1.1,3-2.7,3
			C605.3,145.1,604.3,144,604.3,142.1z M608.8,142.1v-0.3c0-1.7-0.8-2.2-1.8-2.2c-1.1,0-1.8,0.8-1.8,2.2v0.3c0,1.7,0.8,2.2,1.8,2.2
			C608.1,144.3,608.8,143.5,608.8,142.1z"/>
		<path fill="#555555" d="M611.1,136.4h0.9v8.6h-0.9V136.4z M612.1,141.9l2.4-2.9h1l-2.3,2.8l2.5,3.1h-1.1L612.1,141.9z"/>
		<path fill="#555555" d="M616.5,142.1v-0.2c0-2.1,1.2-3,2.6-3c1.6,0,2.4,0.9,2.4,2.8v0.5h-4.1c0,1.5,0.8,2.1,2,2.1
			c0.8,0,1.3-0.2,1.9-0.4v0.7c-0.4,0.3-1,0.6-2,0.6C617.4,145.1,616.5,143.9,616.5,142.1z M617.4,141.5h3.1c0-1.3-0.5-1.8-1.5-1.8
			C618.3,139.6,617.5,140.1,617.4,141.5z"/>
		<path fill="#555555" d="M622.8,139h0.9v0.5h0c0.6-0.4,1.3-0.6,2.1-0.6c1.2,0,1.7,0.5,1.7,1.6v4.4h-0.9v-4.2c0-0.7-0.3-1-1.2-1
			c-0.6,0-1.2,0.2-1.7,0.4v4.8h-0.9V139z"/>
		<path fill="#555555" d="M634,142.9v1.4h4.3v0.8h-9.5v-0.8h4.3v-1.4c-1.8-0.1-2.9-0.7-2.9-1.8c0-1.2,1.3-1.8,3.4-1.8
			c2.1,0,3.4,0.6,3.4,1.8C637,142.2,635.8,142.8,634,142.9z M629.3,138.8V138h8.6v0.8H629.3z M633.6,140.1c-1.2,0-2.4,0.3-2.4,1.1
			c0,0.7,1.2,1.1,2.4,1.1c1.2,0,2.4-0.3,2.4-1.1C636,140.4,634.8,140.1,633.6,140.1z M631.7,137.1v-0.8h3.8v0.8H631.7z"/>
		<path fill="#555555" d="M640.4,146.1v-2.3h6.2V143h-6.2v-0.7h3.1v-0.9h-4.3v-0.7h9.5v0.7h-4.3v0.9h3.1v2.2h-6.2v0.9h6.6v0.7H640.4
			z M647.8,140.2c-1.5-0.2-3.2-0.7-3.8-1.6c-0.6,0.9-2.2,1.5-3.8,1.6l-0.4-0.7c1.6-0.1,3.3-0.6,3.6-1.5h-3.1v-0.7h7.4v0.7h-3.1
			c0.4,0.8,2.2,1.3,3.7,1.4L647.8,140.2z M642.3,136.6v-0.7h3.4v0.7H642.3z"/>
		<path fill="#555555" d="M542.9,162.2l-0.5-0.7c2.7-1.2,4.2-3.4,4.4-5.8h-4v-0.8h5C547.7,158.3,545.6,160.9,542.9,162.2z
			 M549.9,164.3v-10.5h0.9v10.5H549.9z"/>
		<path fill="#555555" d="M552.7,160.2v-0.8h4.3v-1.7h0.9v1.7h4.3v0.8H552.7z M561.2,158.4c-1.8-0.3-3.3-1.2-3.9-2.2
			c-0.4,1-2,1.9-3.8,2.2l-0.4-0.8c1.8-0.2,3.7-1.1,3.8-2.5h-3.4v-0.8h7.8v0.8h-3.4c0.1,1.4,2.2,2.4,3.8,2.5L561.2,158.4z M553.8,164
			v-3h0.9v2.2h6.4v0.8H553.8z"/>
		<path fill="#555555" d="M566.2,161.4c0-1,0.7-1.6,1.8-1.7l1.6-0.2v-0.6c0-0.9-0.4-1.2-1.5-1.2c-0.6,0-1,0.1-1.4,0.2v-0.7
			c0.5-0.2,1.1-0.3,1.8-0.3c1.3,0,2,0.5,2,1.8v4.3h-0.7l-0.1-0.5h-0.1c-0.3,0.3-0.8,0.6-1.6,0.6C567,163.1,566.2,162.5,566.2,161.4z
			 M569.6,161.9v-1.8l-1.4,0.2c-0.7,0.1-1.1,0.4-1.1,1.1c0,0.6,0.4,1,1.1,1C568.8,162.3,569.4,162.2,569.6,161.9z"/>
		<path fill="#555555" d="M571.9,160.1v-0.2c0-2.1,1.2-3,2.8-3c0.8,0,1.2,0.1,1.6,0.4v0.8c-0.5-0.2-0.9-0.4-1.7-0.4
			c-1.1,0-1.8,0.7-1.8,2.1v0.3c0,1.5,0.6,2.2,1.9,2.2c0.8,0,1.3-0.3,1.6-0.4v0.7c-0.4,0.2-0.9,0.5-1.7,0.5
			C572.9,163.1,571.9,162.1,571.9,160.1z"/>
		<path fill="#555555" d="M577.3,160.1v-0.2c0-2.1,1.2-3,2.8-3c0.8,0,1.2,0.1,1.6,0.4v0.8c-0.5-0.2-0.9-0.4-1.7-0.4
			c-1.1,0-1.8,0.7-1.8,2.1v0.3c0,1.5,0.6,2.2,1.9,2.2c0.8,0,1.3-0.3,1.6-0.4v0.7c-0.4,0.2-0.9,0.5-1.7,0.5
			C578.3,163.1,577.3,162.1,577.3,160.1z"/>
		<path fill="#555555" d="M582.7,160.1v-0.2c0-2.1,1.2-3,2.6-3c1.6,0,2.4,0.9,2.4,2.8v0.5h-4.1c0,1.5,0.8,2.1,2,2.1
			c0.8,0,1.3-0.2,1.9-0.4v0.7c-0.4,0.3-1,0.6-2,0.6C583.6,163.1,582.7,161.9,582.7,160.1z M583.6,159.5h3.1c0-1.3-0.5-1.8-1.5-1.8
			C584.5,157.6,583.7,158.1,583.6,159.5z"/>
		<path fill="#555555" d="M588.7,162.6v-0.7c0.5,0.2,0.9,0.4,1.8,0.4c0.9,0,1.3-0.3,1.3-0.9c0-0.6-0.3-0.8-1-1l-0.6-0.2
			c-0.9-0.2-1.5-0.6-1.5-1.6c0-1,0.7-1.7,2-1.7c0.8,0,1.3,0.2,1.6,0.3v0.7c-0.3-0.2-0.9-0.3-1.6-0.3c-0.8,0-1.2,0.3-1.2,0.8
			c0,0.5,0.3,0.7,0.9,0.9l0.6,0.2c1.1,0.3,1.6,0.7,1.6,1.7c0,1.1-0.8,1.8-2.1,1.8C589.8,163,589.2,162.9,588.7,162.6z"/>
		<path fill="#555555" d="M593.6,162.6v-0.7c0.5,0.2,0.9,0.4,1.8,0.4c0.9,0,1.3-0.3,1.3-0.9c0-0.6-0.3-0.8-1-1l-0.6-0.2
			c-0.9-0.2-1.5-0.6-1.5-1.6c0-1,0.7-1.7,2-1.7c0.8,0,1.3,0.2,1.6,0.3v0.7c-0.3-0.2-0.9-0.3-1.6-0.3c-0.8,0-1.2,0.3-1.2,0.8
			c0,0.5,0.3,0.7,0.9,0.9l0.6,0.2c1.1,0.3,1.6,0.7,1.6,1.7c0,1.1-0.8,1.8-2.1,1.8C594.8,163,594.1,162.9,593.6,162.6z"/>
		<path fill="#555555" d="M598.3,163.5h3.8v0.6h-3.8V163.5z"/>
		<path fill="#555555" d="M603.4,161.6v-3.8h-0.9V157h0.9v-1.4h0.9v1.4h1.5v0.8h-1.5v3.7c0,0.6,0.2,0.8,0.9,0.8c0.3,0,0.5,0,0.8-0.1
			v0.6c-0.2,0.1-0.5,0.2-1,0.2C604,163,603.4,162.6,603.4,161.6z"/>
		<path fill="#555555" d="M606.9,160.1v-0.2c0-1.9,1.1-3,2.7-3c1.7,0,2.7,1.1,2.7,3v0.2c0,1.9-1.1,3-2.7,3
			C607.9,163.1,606.9,162,606.9,160.1z M611.4,160.1v-0.3c0-1.7-0.8-2.2-1.8-2.2c-1.1,0-1.8,0.8-1.8,2.2v0.3c0,1.7,0.8,2.2,1.8,2.2
			C610.7,162.3,611.4,161.5,611.4,160.1z"/>
		<path fill="#555555" d="M613.7,154.4h0.9v8.6h-0.9V154.4z M614.7,159.9l2.4-2.9h1l-2.3,2.8l2.5,3.1h-1.1L614.7,159.9z"/>
		<path fill="#555555" d="M619,160.1v-0.2c0-2.1,1.2-3,2.6-3c1.6,0,2.4,0.9,2.4,2.8v0.5H620c0,1.5,0.8,2.1,2,2.1
			c0.8,0,1.3-0.2,1.9-0.4v0.7c-0.4,0.3-1,0.6-2,0.6C620,163.1,619,161.9,619,160.1z M620,159.5h3.1c0-1.3-0.5-1.8-1.5-1.8
			C620.9,157.6,620.1,158.1,620,159.5z"/>
		<path fill="#555555" d="M625.4,157h0.9v0.5h0c0.6-0.4,1.3-0.6,2.1-0.6c1.2,0,1.7,0.5,1.7,1.6v4.4h-0.9v-4.2c0-0.7-0.3-1-1.2-1
			c-0.6,0-1.2,0.2-1.7,0.4v4.8h-0.9V157z"/>
		<path fill="#555555" d="M634.6,159.5v-0.8h9.5v0.8H634.6z M639.3,164.2c-2.3,0-3.7-0.7-3.7-1.9c0-1.2,1.4-1.9,3.7-1.9
			c2.3,0,3.7,0.7,3.7,1.9C643,163.5,641.6,164.2,639.3,164.2z M639.3,157.9c-2.3,0-3.6-0.8-3.6-2c0-1.2,1.4-2,3.6-2
			c2.3,0,3.7,0.8,3.7,2C643,157.2,641.6,157.9,639.3,157.9z M636.5,162.3c0,0.8,1.1,1.2,2.8,1.2c1.7,0,2.8-0.4,2.8-1.2
			c0-0.8-1.1-1.2-2.8-1.2C637.6,161.1,636.5,161.5,636.5,162.3z M639.3,154.7c-1.7,0-2.8,0.5-2.8,1.2c0,0.8,1.1,1.2,2.8,1.2
			c1.7,0,2.8-0.5,2.8-1.2C642.1,155.2,641,154.7,639.3,154.7z"/>
		<path fill="#555555" d="M646.8,158.2c1.5,0,3.1-0.2,4.1-0.4l0.1,0.8c-1.2,0.2-3,0.4-4.8,0.4h-0.9v-4.5h4.7v0.8h-3.8v2.9H646.8z
			 M646.4,164.2V160h0.9v1.3h4.8V160h0.9v4.2H646.4z M652.1,162.1h-4.8v1.3h4.8V162.1z M653,157.1v2.4h-0.9v-5.6h0.9v2.5h1.6v0.8
			H653z"/>
	</g>
	<g>
		<path fill="#555555" d="M401.5,136.2h0.8l-2.8,10h-0.8L401.5,136.2z"/>
		<path fill="#555555" d="M403,143.3V139h0.9v4.2c0,0.8,0.3,1.1,1.2,1.1c0.6,0,1.2-0.2,1.7-0.5V139h0.9v5.9h-0.8l-0.1-0.5h0
			c-0.5,0.4-1.2,0.6-1.9,0.6C403.7,145.1,403,144.5,403,143.3z"/>
		<path fill="#555555" d="M409,144.6v-0.7c0.5,0.2,0.9,0.4,1.8,0.4c0.9,0,1.3-0.3,1.3-0.9c0-0.6-0.3-0.8-1-1l-0.6-0.2
			c-0.9-0.2-1.5-0.6-1.5-1.6c0-1,0.7-1.7,2-1.7c0.8,0,1.3,0.2,1.6,0.3v0.7c-0.3-0.2-0.9-0.3-1.6-0.3c-0.8,0-1.2,0.3-1.2,0.8
			c0,0.5,0.3,0.7,0.9,0.9l0.6,0.2c1.1,0.3,1.6,0.7,1.6,1.7c0,1.1-0.8,1.8-2.1,1.8C410.1,145,409.5,144.9,409,144.6z"/>
		<path fill="#555555" d="M414,142.1v-0.2c0-2.1,1.2-3,2.6-3c1.6,0,2.4,0.9,2.4,2.8v0.5h-4.1c0,1.5,0.8,2.1,2,2.1
			c0.8,0,1.3-0.2,1.9-0.4v0.7c-0.4,0.3-1,0.6-2,0.6C415,145.1,414,143.9,414,142.1z M414.9,141.5h3.1c0-1.3-0.5-1.8-1.5-1.8
			C415.8,139.6,415,140.1,414.9,141.5z"/>
		<path fill="#555555" d="M420.4,139h0.9v0.7h0.1c0.3-0.4,1-0.7,1.7-0.7c0.1,0,0.3,0,0.4,0v0.8c-0.2,0-0.3,0-0.4,0
			c-0.6,0-1.2,0.2-1.6,0.5v4.7h-0.9V139z"/>
		<path fill="#555555" d="M424.1,144.6v-0.7c0.5,0.2,0.9,0.4,1.8,0.4c0.9,0,1.3-0.3,1.3-0.9c0-0.6-0.3-0.8-1-1l-0.6-0.2
			c-0.9-0.2-1.5-0.6-1.5-1.6c0-1,0.7-1.7,2-1.7c0.8,0,1.3,0.2,1.6,0.3v0.7c-0.3-0.2-0.9-0.3-1.6-0.3c-0.8,0-1.2,0.3-1.2,0.8
			c0,0.5,0.3,0.7,0.9,0.9l0.6,0.2c1.1,0.3,1.6,0.7,1.6,1.7c0,1.1-0.8,1.8-2.1,1.8C425.3,145,424.6,144.9,424.1,144.6z"/>
		<path fill="#555555" d="M431.6,136.2h0.8l-2.8,10h-0.8L431.6,136.2z"/>
		<path fill="#555555" d="M432.3,145.3c0-0.6,0.5-1,1.1-1.2v-0.1c-0.3-0.1-0.6-0.3-0.6-0.7c0-0.4,0.2-0.6,0.7-1
			c-0.5-0.3-0.7-0.8-0.7-1.5v0c0-1.2,0.9-1.9,2.2-1.9c0.3,0,0.6,0,0.8,0.1h2v0.7h-1.1c0.3,0.3,0.4,0.6,0.4,1.1v0
			c0,1.3-1,1.9-2.2,1.9c-0.4,0-0.7-0.1-1-0.2c-0.2,0.1-0.3,0.3-0.3,0.5c0,0.3,0.2,0.4,0.6,0.4h1.6c1.1,0,1.9,0.3,1.9,1.4
			c0,1-0.8,1.8-2.8,1.8C433.1,146.7,432.3,146.2,432.3,145.3z M436.8,145c0-0.6-0.3-0.7-1.1-0.7H434c-0.5,0.2-0.8,0.4-0.8,0.9
			c0,0.5,0.5,0.8,1.7,0.8C436.3,146,436.8,145.6,436.8,145z M436.2,140.8L436.2,140.8c0-0.9-0.5-1.2-1.3-1.2c-0.8,0-1.3,0.4-1.3,1.2
			v0.1c0,0.8,0.5,1.2,1.3,1.2C435.8,142,436.2,141.6,436.2,140.8z"/>
		<path fill="#555555" d="M438.5,142.1v-0.2c0-2.1,1.2-3,2.6-3c1.6,0,2.4,0.9,2.4,2.8v0.5h-4.1c0,1.5,0.8,2.1,2,2.1
			c0.8,0,1.3-0.2,1.9-0.4v0.7c-0.4,0.3-1,0.6-2,0.6C439.5,145.1,438.5,143.9,438.5,142.1z M439.5,141.5h3.1c0-1.3-0.5-1.8-1.5-1.8
			C440.4,139.6,439.6,140.1,439.5,141.5z"/>
		<path fill="#555555" d="M445.3,143.6v-3.8h-0.9V139h0.9v-1.4h0.9v1.4h1.5v0.8h-1.5v3.7c0,0.6,0.2,0.8,0.9,0.8c0.3,0,0.5,0,0.8-0.1
			v0.6c-0.2,0.1-0.5,0.2-1,0.2C445.9,145,445.3,144.6,445.3,143.6z"/>
		<path fill="#555555" d="M451.1,137.7h-2.5v-0.8h5.9v0.8H452v7.2h-0.9V137.7z"/>
		<path fill="#555555" d="M455.3,142.1v-0.2c0-1.9,1.1-3,2.7-3c1.7,0,2.7,1.1,2.7,3v0.2c0,1.9-1.1,3-2.7,3
			C456.3,145.1,455.3,144,455.3,142.1z M459.8,142.1v-0.3c0-1.7-0.8-2.2-1.8-2.2c-1.1,0-1.8,0.8-1.8,2.2v0.3c0,1.7,0.8,2.2,1.8,2.2
			C459.1,144.3,459.8,143.5,459.8,142.1z"/>
		<path fill="#555555" d="M462.1,136.4h0.9v8.6h-0.9V136.4z M463.1,141.9l2.4-2.9h1l-2.3,2.8l2.5,3.1h-1.1L463.1,141.9z"/>
		<path fill="#555555" d="M467.5,142.1v-0.2c0-2.1,1.2-3,2.6-3c1.6,0,2.4,0.9,2.4,2.8v0.5h-4.1c0,1.5,0.8,2.1,2,2.1
			c0.8,0,1.3-0.2,1.9-0.4v0.7c-0.4,0.3-1,0.6-2,0.6C468.4,145.1,467.5,143.9,467.5,142.1z M468.4,141.5h3.1c0-1.3-0.5-1.8-1.5-1.8
			C469.3,139.6,468.5,140.1,468.4,141.5z"/>
		<path fill="#555555" d="M473.8,139h0.9v0.5h0c0.6-0.4,1.3-0.6,2.1-0.6c1.2,0,1.7,0.5,1.7,1.6v4.4h-0.9v-4.2c0-0.7-0.3-1-1.2-1
			c-0.6,0-1.2,0.2-1.7,0.4v4.8h-0.9V139z"/>
		<path fill="#555555" d="M485,142.9v1.4h4.3v0.8h-9.5v-0.8h4.3v-1.4c-1.8-0.1-2.9-0.7-2.9-1.8c0-1.2,1.3-1.8,3.4-1.8
			c2.1,0,3.4,0.6,3.4,1.8C488,142.2,486.8,142.8,485,142.9z M480.3,138.8V138h8.6v0.8H480.3z M484.6,140.1c-1.2,0-2.4,0.3-2.4,1.1
			c0,0.7,1.2,1.1,2.4,1.1c1.2,0,2.4-0.3,2.4-1.1C487,140.4,485.8,140.1,484.6,140.1z M482.7,137.1v-0.8h3.8v0.8H482.7z"/>
		<path fill="#555555" d="M491.4,146.1v-2.3h6.2V143h-6.2v-0.7h3.1v-0.9h-4.3v-0.7h9.5v0.7h-4.3v0.9h3.1v2.2h-6.2v0.9h6.6v0.7H491.4
			z M498.8,140.2c-1.5-0.2-3.2-0.7-3.8-1.6c-0.6,0.9-2.2,1.5-3.8,1.6l-0.4-0.7c1.6-0.1,3.3-0.6,3.6-1.5h-3.1v-0.7h7.4v0.7h-3.1
			c0.4,0.8,2.2,1.3,3.7,1.4L498.8,140.2z M493.3,136.6v-0.7h3.4v0.7H493.3z"/>
		<path fill="#555555" d="M405.2,161.4c0-1,0.7-1.6,1.8-1.7l1.6-0.2v-0.6c0-0.9-0.4-1.2-1.5-1.2c-0.6,0-1,0.1-1.4,0.2v-0.7
			c0.5-0.2,1.1-0.3,1.8-0.3c1.3,0,2,0.5,2,1.8v4.3h-0.7l-0.1-0.5h-0.1c-0.3,0.3-0.8,0.6-1.6,0.6C406,163.1,405.2,162.5,405.2,161.4z
			 M408.7,161.9v-1.8l-1.4,0.2c-0.7,0.1-1.1,0.4-1.1,1.1c0,0.6,0.4,1,1.1,1C407.9,162.3,408.4,162.2,408.7,161.9z"/>
		<path fill="#555555" d="M410.9,160.1v-0.2c0-2.1,1.2-3,2.8-3c0.8,0,1.2,0.1,1.6,0.4v0.8c-0.5-0.2-0.9-0.4-1.7-0.4
			c-1.1,0-1.8,0.7-1.8,2.1v0.3c0,1.5,0.6,2.2,1.9,2.2c0.8,0,1.3-0.3,1.6-0.4v0.7c-0.4,0.2-0.9,0.5-1.7,0.5
			C412,163.1,410.9,162.1,410.9,160.1z"/>
		<path fill="#555555" d="M416.3,160.1v-0.2c0-2.1,1.2-3,2.8-3c0.8,0,1.2,0.1,1.6,0.4v0.8c-0.5-0.2-0.9-0.4-1.7-0.4
			c-1.1,0-1.8,0.7-1.8,2.1v0.3c0,1.5,0.6,2.2,1.9,2.2c0.8,0,1.3-0.3,1.6-0.4v0.7c-0.4,0.2-0.9,0.5-1.7,0.5
			C417.4,163.1,416.3,162.1,416.3,160.1z"/>
		<path fill="#555555" d="M421.7,160.1v-0.2c0-2.1,1.2-3,2.6-3c1.6,0,2.4,0.9,2.4,2.8v0.5h-4.1c0,1.5,0.8,2.1,2,2.1
			c0.8,0,1.3-0.2,1.9-0.4v0.7c-0.4,0.3-1,0.6-2,0.6C422.7,163.1,421.7,161.9,421.7,160.1z M422.7,159.5h3.1c0-1.3-0.5-1.8-1.5-1.8
			C423.6,157.6,422.8,158.1,422.7,159.5z"/>
		<path fill="#555555" d="M427.7,162.6v-0.7c0.5,0.2,0.9,0.4,1.8,0.4c0.9,0,1.3-0.3,1.3-0.9c0-0.6-0.3-0.8-1-1l-0.6-0.2
			c-0.9-0.2-1.5-0.6-1.5-1.6c0-1,0.7-1.7,2-1.7c0.8,0,1.3,0.2,1.6,0.3v0.7c-0.3-0.2-0.9-0.3-1.6-0.3c-0.8,0-1.2,0.3-1.2,0.8
			c0,0.5,0.3,0.7,0.9,0.9l0.6,0.2c1.1,0.3,1.6,0.7,1.6,1.7c0,1.1-0.8,1.8-2.1,1.8C428.8,163,428.2,162.9,427.7,162.6z"/>
		<path fill="#555555" d="M432.7,162.6v-0.7c0.5,0.2,0.9,0.4,1.8,0.4c0.9,0,1.3-0.3,1.3-0.9c0-0.6-0.3-0.8-1-1l-0.6-0.2
			c-0.9-0.2-1.5-0.6-1.5-1.6c0-1,0.7-1.7,2-1.7c0.8,0,1.3,0.2,1.6,0.3v0.7c-0.3-0.2-0.9-0.3-1.6-0.3c-0.8,0-1.2,0.3-1.2,0.8
			c0,0.5,0.3,0.7,0.9,0.9l0.6,0.2c1.1,0.3,1.6,0.7,1.6,1.7c0,1.1-0.8,1.8-2.1,1.8C433.8,163,433.2,162.9,432.7,162.6z"/>
		<path fill="#555555" d="M437.3,163.5h3.8v0.6h-3.8V163.5z"/>
		<path fill="#555555" d="M442.4,161.6v-3.8h-0.9V157h0.9v-1.4h0.9v1.4h1.5v0.8h-1.5v3.7c0,0.6,0.2,0.8,0.9,0.8c0.3,0,0.5,0,0.8-0.1
			v0.6c-0.2,0.1-0.5,0.2-1,0.2C443.1,163,442.4,162.6,442.4,161.6z"/>
		<path fill="#555555" d="M445.9,160.1v-0.2c0-1.9,1.1-3,2.7-3c1.7,0,2.7,1.1,2.7,3v0.2c0,1.9-1.1,3-2.7,3
			C446.9,163.1,445.9,162,445.9,160.1z M450.4,160.1v-0.3c0-1.7-0.8-2.2-1.8-2.2c-1.1,0-1.8,0.8-1.8,2.2v0.3c0,1.7,0.8,2.2,1.8,2.2
			C449.7,162.3,450.4,161.5,450.4,160.1z"/>
		<path fill="#555555" d="M452.7,154.4h0.9v8.6h-0.9V154.4z M453.7,159.9l2.4-2.9h1l-2.3,2.8l2.5,3.1h-1.1L453.7,159.9z"/>
		<path fill="#555555" d="M458.1,160.1v-0.2c0-2.1,1.2-3,2.6-3c1.6,0,2.4,0.9,2.4,2.8v0.5H459c0,1.5,0.8,2.1,2,2.1
			c0.8,0,1.3-0.2,1.9-0.4v0.7c-0.4,0.3-1,0.6-2,0.6C459,163.1,458.1,161.9,458.1,160.1z M459,159.5h3.1c0-1.3-0.5-1.8-1.5-1.8
			C459.9,157.6,459.1,158.1,459,159.5z"/>
		<path fill="#555555" d="M464.5,157h0.9v0.5h0c0.6-0.4,1.3-0.6,2.1-0.6c1.2,0,1.7,0.5,1.7,1.6v4.4h-0.9v-4.2c0-0.7-0.3-1-1.2-1
			c-0.6,0-1.2,0.2-1.7,0.4v4.8h-0.9V157z"/>
		<path fill="#555555" d="M474,158.9v-4.7h0.9v1.5h3.1v-1.5h0.9v4.7H474z M478,156.5h-3.1v1.6h3.1V156.5z M475,164.2v-2.6h5.8v-1
			H475v-0.7h6.7v2.5h-5.8v1.2h6.2v0.8H475z M481.7,156.9v2.3h-0.9v-5.4h0.9v2.4h1.6v0.8H481.7z"/>
		<path fill="#555555" d="M483.9,156.5v-0.7h5.3v0.7H483.9z M486.7,160.3c-1.3,0-2.3-0.6-2.3-1.6c0-1,1-1.6,2.3-1.6s2.3,0.6,2.3,1.6
			C489,159.7,488,160.3,486.7,160.3z M485.3,155v-0.8h2.7v0.8H485.3z M486.7,157.7c-0.8,0-1.4,0.4-1.4,0.9c0,0.5,0.6,0.9,1.4,0.9
			c0.8,0,1.4-0.4,1.4-0.9C488.1,158.1,487.5,157.7,486.7,157.7z M489.3,164.3c-2.2,0-3.5-0.7-3.5-1.8c0-1.1,1.3-1.8,3.5-1.8
			c2.2,0,3.5,0.7,3.5,1.8C492.8,163.6,491.5,164.3,489.3,164.3z M486.7,162.5c0,0.6,1,1,2.6,1s2.6-0.4,2.6-1c0-0.6-1-1-2.6-1
			S486.7,161.9,486.7,162.5z M491.9,160.7v-3.1h-1.3v2.7h-0.9V154h0.9v2.8h1.3v-3h0.9v6.9H491.9z"/>
	</g>
	
		<rect x="408.2" y="41.6" fill="#EAFAFF" stroke="#555555" stroke-width="3" stroke-linecap="round" stroke-linejoin="round" stroke-miterlimit="10" width="200" height="40"/>
	<g>
		<path fill="#555555" d="M467.3,65.5v-3.7h-2.4V61h9.5v0.8h-2.5v3.7h-0.9v-3.7h-2.7v3.7H467.3z M469.6,60.1c-2.3,0-3.7-0.9-3.7-2.3
			c0-1.4,1.4-2.3,3.7-2.3c2.3,0,3.7,0.9,3.7,2.3C473.3,59.1,471.9,60.1,469.6,60.1z M466.8,57.8c0,0.9,1.1,1.5,2.8,1.5
			c1.8,0,2.8-0.6,2.8-1.5c0-0.9-1.1-1.5-2.8-1.5C467.8,56.3,466.8,56.9,466.8,57.8z"/>
		<path fill="#555555" d="M475.2,64.2v-0.8h2.5v-1.4h0.9v1.4h2.7v-1.4h0.9v1.4h2.5v0.8H475.2z M475.8,57.9v-0.8h8.3v0.8H475.8z
			 M480,61.9c-2,0-3.2-0.6-3.2-1.8c0-1.2,1.3-1.8,3.2-1.8c2,0,3.2,0.6,3.2,1.8C483.2,61.3,482,61.9,480,61.9z M480,59.1
			c-1.2,0-2.3,0.3-2.3,1.1c0,0.7,1.1,1.1,2.3,1.1c1.2,0,2.3-0.3,2.3-1.1C482.3,59.4,481.2,59.1,480,59.1z M478.1,56.3v-0.8h3.8v0.8
			H478.1z"/>
		<path fill="#555555" d="M485.6,57.7V57h6.1v0.8H485.6z M488.6,62c-1.4,0-2.5-0.7-2.5-1.8c0-1.1,1.1-1.8,2.5-1.8
			c1.4,0,2.5,0.7,2.5,1.8C491.1,61.3,490.1,62,488.6,62z M488.6,59c-0.8,0-1.6,0.4-1.6,1.1c0,0.7,0.8,1.1,1.6,1.1
			c0.9,0,1.6-0.4,1.6-1.1C490.3,59.5,489.5,59,488.6,59z M487.1,56.2v-0.8h3v0.8H487.1z M487.1,65.2v-2.7h0.9v1.9h6.1v0.8H487.1z
			 M493.7,59.3v3.4h-0.9V55h0.9v3.5h1.6v0.8H493.7z"/>
		<path fill="#555555" d="M507,60.4h1.6v0.8h-4.3v4.3h-0.9v-4.3h-4.3v-0.8h6.9c0.3-1.1,0.3-2.9,0.3-3.9h-6.2v-0.8h7.1
			C507.4,57.2,507.4,58.8,507,60.4z"/>
		<path fill="#555555" d="M514.7,55.9c-0.1,2.9-2.1,4.9-4.7,5.7l-0.5-0.8c2.3-0.6,3.9-2.2,4.2-4.2h-3.8v-0.8H514.7z M511,65.2V62
			h0.9v2.5h6v0.8H511z M517.6,59.1v3.8h-0.9V55h0.9v3.3h1.6v0.8H517.6z"/>
		<path fill="#555555" d="M520.1,60.5v-0.2c0-2.1,1-3.8,2.1-4.9h0.8c-1.1,1.2-1.9,2.9-1.9,4.8v0.3c0,1.8,0.9,3.7,1.9,4.9h-0.8
			C521.1,64.3,520.1,62.6,520.1,60.5z"/>
		<path fill="#555555" d="M523.9,63.7l0.2-0.8c0.5,0.3,1.3,0.5,1.9,0.5c1.3,0,2.1-0.6,2.1-1.6c0-1-0.8-1.5-2-1.5h-0.8v-0.8h0.7
			c1,0,1.8-0.5,1.8-1.4c0-1-0.6-1.3-1.6-1.3c-0.7,0-1.3,0.3-1.8,0.6l-0.1-0.8c0.5-0.3,1.4-0.6,2.1-0.6c1.4,0,2.4,0.7,2.4,2
			c0,1-0.6,1.6-1.5,1.9c1,0.2,1.8,0.8,1.8,2c0,1.4-1.1,2.4-2.9,2.4C525.1,64.3,524.3,64,523.9,63.7z"/>
		<path fill="#555555" d="M530.5,60.5v-0.7c0-2.8,1.4-3.8,3-3.8c1.6,0,2.9,1,2.9,3.8v0.7c0,2.7-1.2,3.8-2.9,3.8
			C531.8,64.3,530.5,63.2,530.5,60.5z M535.4,60.6v-0.9c0-2-0.7-3-1.9-3c-1.3,0-1.9,0.9-1.9,2.9v0.9c0,2,0.7,3,1.9,3
			C534.7,63.5,535.4,62.7,535.4,60.6z"/>
		<path fill="#555555" d="M542,63.3v-2h-4.3v-0.8h9.5v0.8h-4.3v2H542z M538.9,59.4v-4h0.9v1.3h5.2v-1.3h0.9v4H538.9z M538.9,65.2
			v-2.8h0.9v2.1h6.3v0.8H538.9z M545.1,57.4h-5.2v1.2h5.2V57.4z"/>
		<path fill="#555555" d="M549.8,60.6v-0.3c0-1.8-0.9-3.7-1.9-4.9h0.8c1.1,1.1,2.1,2.8,2.1,4.9v0.2c0,2.1-0.9,3.8-2.1,4.9h-0.8
			C548.9,64.2,549.8,62.5,549.8,60.6z"/>
	</g>
	<g>
		<path fill="none" stroke="#555555" stroke-width="3" stroke-linecap="round" stroke-linejoin="round" stroke-miterlimit="10" d="
			M449.3,96.5V120 M438.5,105.2l10.8-10.8l10.9,10.8"/>
	</g>
	<g>
		<path fill="none" stroke="#555555" stroke-width="3" stroke-linecap="round" stroke-linejoin="round" stroke-miterlimit="10" d="
			M598.3,96.5V120 M587.5,105.2l10.8-10.8l10.9,10.8"/>
	</g>
	
		<rect x="623.2" y="41.6" fill="#FEF4F4" stroke="#555555" stroke-width="3" stroke-linecap="round" stroke-linejoin="round" stroke-miterlimit="10" width="58" height="40"/>
	<g>
		<path fill="#555555" d="M647.5,58.4c0,1.6-1.2,2.6-2.7,2.6c-1.5,0-2.7-1-2.7-2.6c0-1.5,1.2-2.6,2.7-2.6S647.5,56.8,647.5,58.4z
			 M643,58.4c0,1.1,0.8,1.8,1.8,1.8c1.1,0,1.8-0.7,1.8-1.8c0-1.1-0.7-1.8-1.8-1.8C643.7,56.5,643,57.3,643,58.4z M643.8,65.2V62h0.9
			v2.4h6.1v0.8H643.8z M647.7,57.3v-0.8h1.9V55h0.9v7.6h-0.9V60h-1.9v-0.8h1.9v-1.9H647.7z"/>
		<path fill="#555555" d="M652.4,55.8h5.7v0.8h-2.4c0,0.3,0,0.5,0,0.6c0.1,1.3,1.3,2.5,2.5,2.9l-0.5,0.7c-1-0.4-2.1-1.4-2.5-2.3
			c-0.3,1-1.5,2.1-2.6,2.6l-0.5-0.7c1.3-0.5,2.7-1.8,2.7-3.2c0-0.1,0-0.3,0-0.6h-2.4V55.8z M657.1,65.5c-2.2,0-3.5-0.8-3.5-2
			c0-1.3,1.3-2,3.5-2c2.2,0,3.5,0.8,3.5,2C660.6,64.7,659.3,65.5,657.1,65.5z M657.1,62.3c-1.6,0-2.6,0.4-2.6,1.2
			c0,0.8,1,1.2,2.6,1.2c1.6,0,2.6-0.5,2.6-1.2C659.6,62.7,658.6,62.3,657.1,62.3z M660.4,58.7v2.8h-0.9V55h0.9v2.9h1.6v0.8H660.4z"
			/>
	</g>
	
		<line fill="none" stroke="#555555" stroke-width="3" stroke-linecap="round" stroke-miterlimit="10" x1="706.5" y1="81.6" x2="388.5" y2="81.6"/>
</g>
</svg>
